; NON-PLATED HOLES START AT T1
; THROUGH (PLATED) HOLES START AT T100
M48
INCH
T1C0.118110
T100C0.039370
T101C0.015748
T102C0.038000
T103C0.098425
T104C0.035311
T105C0.030000
T106C0.035289
%
T1
X001257Y001315
X024518Y001424
X043536Y005283
X050735Y005185
X059275Y006703
X043589Y009323
X038014Y005283
X038063Y009326
X045903Y005234
X001352Y010834
X024472Y010887
X052911Y006756
T100
X050303Y011150
X048303Y011150
X049303Y011150
X043797Y011054
X037797Y011054
X038797Y011054
X039797Y011054
X046303Y011150
X047303Y011150
X040797Y011054
X041797Y011054
X042797Y011054
T101
X035880Y009235
X037320Y008275
T102
X056621Y011014
X052527Y011015
X057621Y011014
X053527Y011015
X058621Y011014
X054527Y011015
X059621Y011014
X055527Y011015
T103
X038047Y009304
X043547Y005304
X038047Y005304
X043547Y009304
T104
X006035Y011103
X015635Y010303
X010035Y010303
X015635Y011103
X011635Y010303
X006035Y010303
X010035Y011103
X011635Y011103
T105
X027894Y010729
X028894Y010729
X030894Y010729
X031894Y010729
X029894Y010729
X032894Y010729
X033894Y010729
X026894Y010729
X034894Y010729
X035894Y010729
T106
X012435Y011103
X008435Y011103
X010835Y011103
X012435Y010303
X008435Y010303
X017235Y011103
X010835Y010303
X017235Y010303
X004435Y011103
X004435Y010303
X013235Y011103
X009235Y011103
X013235Y010303
X009235Y010303
X018035Y011103
X016435Y011103
X018035Y010303
X016435Y010303
X014035Y011103
X014035Y010303
X006835Y011103
X006835Y010303
X002835Y011103
X002835Y010303
X007635Y011103
X007635Y010303
X014835Y011103
X005235Y011103
X014835Y010303
X003635Y011103
X005235Y010303
X003635Y010303
T00
M30
