G04 MADE WITH FRITZING*
G04 WWW.FRITZING.ORG*
G04 DOUBLE SIDED*
G04 HOLES PLATED*
G04 CONTOUR ON CENTER OF CONTOUR VECTOR*
%ASAXBY*%
%FSLAX23Y23*%
%MOIN*%
%OFA0B0*%
%SFA1.0B1.0*%
%ADD10C,0.067511*%
%ADD11C,0.067533*%
%ADD12C,0.080000*%
%ADD13C,0.088000*%
%ADD14C,0.135984*%
%ADD15C,0.128110*%
%ADD16C,0.049370*%
%ADD17R,0.080000X0.080000*%
%ADD18R,0.001000X0.001000*%
%LNMASK1*%
G90*
G70*
G54D10*
X284Y1030D03*
X364Y1030D03*
X444Y1030D03*
X524Y1030D03*
G54D11*
X604Y1030D03*
G54D10*
X684Y1030D03*
X764Y1030D03*
X844Y1030D03*
X924Y1030D03*
G54D11*
X1004Y1030D03*
G54D10*
X1084Y1030D03*
G54D11*
X1164Y1030D03*
G54D10*
X1244Y1030D03*
X1324Y1030D03*
X1404Y1030D03*
X1484Y1030D03*
G54D11*
X1564Y1030D03*
G54D10*
X1644Y1030D03*
X1724Y1030D03*
X1804Y1030D03*
X1804Y1110D03*
X1724Y1110D03*
X1644Y1110D03*
G54D11*
X1564Y1110D03*
G54D10*
X1484Y1110D03*
X1404Y1110D03*
X1324Y1110D03*
X1244Y1110D03*
G54D11*
X1164Y1110D03*
G54D10*
X1084Y1110D03*
G54D11*
X1004Y1110D03*
G54D10*
X924Y1110D03*
X844Y1110D03*
X764Y1110D03*
X684Y1110D03*
G54D11*
X604Y1110D03*
G54D10*
X524Y1110D03*
X444Y1110D03*
X364Y1110D03*
X284Y1110D03*
G54D12*
X5030Y1115D03*
X4930Y1115D03*
X4830Y1115D03*
X4730Y1115D03*
X4630Y1115D03*
G54D13*
X5962Y1101D03*
X5862Y1101D03*
X5762Y1101D03*
X5662Y1101D03*
X5962Y1101D03*
X5862Y1101D03*
X5762Y1101D03*
X5662Y1101D03*
X5253Y1102D03*
X5353Y1102D03*
X5453Y1102D03*
X5553Y1102D03*
G54D14*
X3805Y930D03*
G54D12*
X4380Y1105D03*
X4280Y1105D03*
X4180Y1105D03*
X4080Y1105D03*
X3980Y1105D03*
X3880Y1105D03*
X3780Y1105D03*
G54D14*
X3805Y530D03*
X4355Y530D03*
X4355Y930D03*
G54D15*
X4590Y523D03*
X5074Y519D03*
X3801Y528D03*
X4354Y528D03*
X3806Y933D03*
X4359Y932D03*
X5291Y676D03*
X5928Y670D03*
X2452Y142D03*
X2447Y1089D03*
X135Y1083D03*
X126Y132D03*
G54D16*
X3732Y828D03*
X3588Y924D03*
G54D17*
X5030Y1115D03*
X4380Y1105D03*
G54D18*
X2682Y1113D02*
X2696Y1113D01*
X2782Y1113D02*
X2796Y1113D01*
X2881Y1113D02*
X2896Y1113D01*
X2981Y1113D02*
X2996Y1113D01*
X3081Y1113D02*
X3096Y1113D01*
X3181Y1113D02*
X3196Y1113D01*
X3281Y1113D02*
X3296Y1113D01*
X3381Y1113D02*
X3396Y1113D01*
X3481Y1113D02*
X3496Y1113D01*
X3581Y1113D02*
X3596Y1113D01*
X2678Y1112D02*
X2699Y1112D01*
X2778Y1112D02*
X2799Y1112D01*
X2878Y1112D02*
X2899Y1112D01*
X2978Y1112D02*
X2999Y1112D01*
X3078Y1112D02*
X3099Y1112D01*
X3178Y1112D02*
X3199Y1112D01*
X3278Y1112D02*
X3299Y1112D01*
X3378Y1112D02*
X3399Y1112D01*
X3478Y1112D02*
X3499Y1112D01*
X3578Y1112D02*
X3599Y1112D01*
X2676Y1111D02*
X2702Y1111D01*
X2776Y1111D02*
X2802Y1111D01*
X2876Y1111D02*
X2901Y1111D01*
X2976Y1111D02*
X3001Y1111D01*
X3076Y1111D02*
X3101Y1111D01*
X3176Y1111D02*
X3201Y1111D01*
X3276Y1111D02*
X3301Y1111D01*
X3376Y1111D02*
X3401Y1111D01*
X3476Y1111D02*
X3501Y1111D01*
X3576Y1111D02*
X3601Y1111D01*
X2673Y1110D02*
X2704Y1110D01*
X2773Y1110D02*
X2804Y1110D01*
X2873Y1110D02*
X2904Y1110D01*
X2973Y1110D02*
X3004Y1110D01*
X3073Y1110D02*
X3104Y1110D01*
X3173Y1110D02*
X3204Y1110D01*
X3273Y1110D02*
X3304Y1110D01*
X3373Y1110D02*
X3404Y1110D01*
X3473Y1110D02*
X3504Y1110D01*
X3573Y1110D02*
X3604Y1110D01*
X2672Y1109D02*
X2706Y1109D01*
X2771Y1109D02*
X2806Y1109D01*
X2871Y1109D02*
X2906Y1109D01*
X2971Y1109D02*
X3006Y1109D01*
X3071Y1109D02*
X3106Y1109D01*
X3171Y1109D02*
X3206Y1109D01*
X3271Y1109D02*
X3306Y1109D01*
X3371Y1109D02*
X3406Y1109D01*
X3471Y1109D02*
X3506Y1109D01*
X3571Y1109D02*
X3606Y1109D01*
X2670Y1108D02*
X2707Y1108D01*
X2770Y1108D02*
X2807Y1108D01*
X2870Y1108D02*
X2907Y1108D01*
X2970Y1108D02*
X3007Y1108D01*
X3070Y1108D02*
X3107Y1108D01*
X3170Y1108D02*
X3207Y1108D01*
X3270Y1108D02*
X3307Y1108D01*
X3370Y1108D02*
X3407Y1108D01*
X3470Y1108D02*
X3507Y1108D01*
X3570Y1108D02*
X3607Y1108D01*
X2668Y1107D02*
X2709Y1107D01*
X2768Y1107D02*
X2809Y1107D01*
X2868Y1107D02*
X2909Y1107D01*
X2968Y1107D02*
X3009Y1107D01*
X3068Y1107D02*
X3109Y1107D01*
X3168Y1107D02*
X3209Y1107D01*
X3268Y1107D02*
X3309Y1107D01*
X3368Y1107D02*
X3409Y1107D01*
X3468Y1107D02*
X3509Y1107D01*
X3568Y1107D02*
X3609Y1107D01*
X2667Y1106D02*
X2710Y1106D01*
X2767Y1106D02*
X2810Y1106D01*
X2867Y1106D02*
X2910Y1106D01*
X2967Y1106D02*
X3010Y1106D01*
X3067Y1106D02*
X3110Y1106D01*
X3167Y1106D02*
X3210Y1106D01*
X3267Y1106D02*
X3310Y1106D01*
X3367Y1106D02*
X3410Y1106D01*
X3467Y1106D02*
X3510Y1106D01*
X3567Y1106D02*
X3610Y1106D01*
X2666Y1105D02*
X2712Y1105D01*
X2766Y1105D02*
X2812Y1105D01*
X2866Y1105D02*
X2911Y1105D01*
X2966Y1105D02*
X3011Y1105D01*
X3066Y1105D02*
X3111Y1105D01*
X3166Y1105D02*
X3211Y1105D01*
X3266Y1105D02*
X3311Y1105D01*
X3366Y1105D02*
X3411Y1105D01*
X3466Y1105D02*
X3511Y1105D01*
X3565Y1105D02*
X3611Y1105D01*
X2664Y1104D02*
X2713Y1104D01*
X2764Y1104D02*
X2813Y1104D01*
X2864Y1104D02*
X2913Y1104D01*
X2964Y1104D02*
X3013Y1104D01*
X3064Y1104D02*
X3113Y1104D01*
X3164Y1104D02*
X3213Y1104D01*
X3264Y1104D02*
X3313Y1104D01*
X3364Y1104D02*
X3413Y1104D01*
X3464Y1104D02*
X3513Y1104D01*
X3564Y1104D02*
X3613Y1104D01*
X2663Y1103D02*
X2714Y1103D01*
X2763Y1103D02*
X2814Y1103D01*
X2863Y1103D02*
X2914Y1103D01*
X2963Y1103D02*
X3014Y1103D01*
X3063Y1103D02*
X3114Y1103D01*
X3163Y1103D02*
X3214Y1103D01*
X3263Y1103D02*
X3314Y1103D01*
X3363Y1103D02*
X3414Y1103D01*
X3463Y1103D02*
X3514Y1103D01*
X3563Y1103D02*
X3614Y1103D01*
X2662Y1102D02*
X2715Y1102D01*
X2762Y1102D02*
X2815Y1102D01*
X2862Y1102D02*
X2915Y1102D01*
X2962Y1102D02*
X3015Y1102D01*
X3062Y1102D02*
X3115Y1102D01*
X3162Y1102D02*
X3215Y1102D01*
X3262Y1102D02*
X3315Y1102D01*
X3362Y1102D02*
X3415Y1102D01*
X3462Y1102D02*
X3515Y1102D01*
X3562Y1102D02*
X3615Y1102D01*
X2661Y1101D02*
X2716Y1101D01*
X2761Y1101D02*
X2816Y1101D01*
X2861Y1101D02*
X2916Y1101D01*
X2961Y1101D02*
X3016Y1101D01*
X3061Y1101D02*
X3116Y1101D01*
X3161Y1101D02*
X3216Y1101D01*
X3261Y1101D02*
X3316Y1101D01*
X3361Y1101D02*
X3416Y1101D01*
X3461Y1101D02*
X3516Y1101D01*
X3561Y1101D02*
X3616Y1101D01*
X2660Y1100D02*
X2717Y1100D01*
X2760Y1100D02*
X2817Y1100D01*
X2860Y1100D02*
X2917Y1100D01*
X2960Y1100D02*
X3017Y1100D01*
X3060Y1100D02*
X3117Y1100D01*
X3160Y1100D02*
X3217Y1100D01*
X3260Y1100D02*
X3317Y1100D01*
X3360Y1100D02*
X3417Y1100D01*
X3460Y1100D02*
X3517Y1100D01*
X3560Y1100D02*
X3617Y1100D01*
X2659Y1099D02*
X2718Y1099D01*
X2759Y1099D02*
X2818Y1099D01*
X2859Y1099D02*
X2918Y1099D01*
X2959Y1099D02*
X3018Y1099D01*
X3059Y1099D02*
X3118Y1099D01*
X3159Y1099D02*
X3218Y1099D01*
X3259Y1099D02*
X3318Y1099D01*
X3359Y1099D02*
X3418Y1099D01*
X3459Y1099D02*
X3518Y1099D01*
X3559Y1099D02*
X3618Y1099D01*
X2658Y1098D02*
X2719Y1098D01*
X2758Y1098D02*
X2819Y1098D01*
X2858Y1098D02*
X2919Y1098D01*
X2958Y1098D02*
X3019Y1098D01*
X3058Y1098D02*
X3119Y1098D01*
X3158Y1098D02*
X3219Y1098D01*
X3258Y1098D02*
X3319Y1098D01*
X3358Y1098D02*
X3419Y1098D01*
X3458Y1098D02*
X3519Y1098D01*
X3558Y1098D02*
X3619Y1098D01*
X2658Y1097D02*
X2719Y1097D01*
X2758Y1097D02*
X2819Y1097D01*
X2858Y1097D02*
X2919Y1097D01*
X2958Y1097D02*
X3019Y1097D01*
X3058Y1097D02*
X3119Y1097D01*
X3158Y1097D02*
X3219Y1097D01*
X3258Y1097D02*
X3319Y1097D01*
X3358Y1097D02*
X3419Y1097D01*
X3458Y1097D02*
X3519Y1097D01*
X3558Y1097D02*
X3619Y1097D01*
X2657Y1096D02*
X2720Y1096D01*
X2757Y1096D02*
X2820Y1096D01*
X2857Y1096D02*
X2920Y1096D01*
X2957Y1096D02*
X3020Y1096D01*
X3057Y1096D02*
X3120Y1096D01*
X3157Y1096D02*
X3220Y1096D01*
X3257Y1096D02*
X3320Y1096D01*
X3357Y1096D02*
X3420Y1096D01*
X3457Y1096D02*
X3520Y1096D01*
X3557Y1096D02*
X3620Y1096D01*
X2656Y1095D02*
X2721Y1095D01*
X2756Y1095D02*
X2821Y1095D01*
X2856Y1095D02*
X2921Y1095D01*
X2956Y1095D02*
X3021Y1095D01*
X3056Y1095D02*
X3121Y1095D01*
X3156Y1095D02*
X3221Y1095D01*
X3256Y1095D02*
X3321Y1095D01*
X3356Y1095D02*
X3421Y1095D01*
X3456Y1095D02*
X3521Y1095D01*
X3556Y1095D02*
X3621Y1095D01*
X2656Y1094D02*
X2722Y1094D01*
X2756Y1094D02*
X2822Y1094D01*
X2856Y1094D02*
X2922Y1094D01*
X2956Y1094D02*
X3022Y1094D01*
X3056Y1094D02*
X3122Y1094D01*
X3155Y1094D02*
X3222Y1094D01*
X3255Y1094D02*
X3322Y1094D01*
X3355Y1094D02*
X3421Y1094D01*
X3455Y1094D02*
X3521Y1094D01*
X3555Y1094D02*
X3621Y1094D01*
X2655Y1093D02*
X2722Y1093D01*
X2755Y1093D02*
X2822Y1093D01*
X2855Y1093D02*
X2922Y1093D01*
X2955Y1093D02*
X3022Y1093D01*
X3055Y1093D02*
X3122Y1093D01*
X3155Y1093D02*
X3222Y1093D01*
X3255Y1093D02*
X3322Y1093D01*
X3355Y1093D02*
X3422Y1093D01*
X3455Y1093D02*
X3522Y1093D01*
X3555Y1093D02*
X3622Y1093D01*
X2654Y1092D02*
X2723Y1092D01*
X2754Y1092D02*
X2823Y1092D01*
X2854Y1092D02*
X2923Y1092D01*
X2954Y1092D02*
X3023Y1092D01*
X3054Y1092D02*
X3123Y1092D01*
X3154Y1092D02*
X3223Y1092D01*
X3254Y1092D02*
X3323Y1092D01*
X3354Y1092D02*
X3423Y1092D01*
X3454Y1092D02*
X3523Y1092D01*
X3554Y1092D02*
X3623Y1092D01*
X2654Y1091D02*
X2723Y1091D01*
X2754Y1091D02*
X2823Y1091D01*
X2854Y1091D02*
X2923Y1091D01*
X2954Y1091D02*
X3023Y1091D01*
X3054Y1091D02*
X3123Y1091D01*
X3154Y1091D02*
X3223Y1091D01*
X3254Y1091D02*
X3323Y1091D01*
X3354Y1091D02*
X3423Y1091D01*
X3454Y1091D02*
X3523Y1091D01*
X3554Y1091D02*
X3623Y1091D01*
X2653Y1090D02*
X2724Y1090D01*
X2753Y1090D02*
X2824Y1090D01*
X2853Y1090D02*
X2924Y1090D01*
X2953Y1090D02*
X3024Y1090D01*
X3053Y1090D02*
X3124Y1090D01*
X3153Y1090D02*
X3224Y1090D01*
X3253Y1090D02*
X3324Y1090D01*
X3353Y1090D02*
X3424Y1090D01*
X3453Y1090D02*
X3524Y1090D01*
X3553Y1090D02*
X3624Y1090D01*
X2653Y1089D02*
X2724Y1089D01*
X2753Y1089D02*
X2824Y1089D01*
X2853Y1089D02*
X2924Y1089D01*
X2953Y1089D02*
X3024Y1089D01*
X3053Y1089D02*
X3124Y1089D01*
X3153Y1089D02*
X3224Y1089D01*
X3253Y1089D02*
X3324Y1089D01*
X3353Y1089D02*
X3424Y1089D01*
X3453Y1089D02*
X3524Y1089D01*
X3553Y1089D02*
X3624Y1089D01*
X2652Y1088D02*
X2725Y1088D01*
X2752Y1088D02*
X2825Y1088D01*
X2852Y1088D02*
X2925Y1088D01*
X2952Y1088D02*
X3025Y1088D01*
X3052Y1088D02*
X3125Y1088D01*
X3152Y1088D02*
X3225Y1088D01*
X3252Y1088D02*
X3325Y1088D01*
X3352Y1088D02*
X3425Y1088D01*
X3452Y1088D02*
X3525Y1088D01*
X3552Y1088D02*
X3625Y1088D01*
X2652Y1087D02*
X2725Y1087D01*
X2752Y1087D02*
X2825Y1087D01*
X2852Y1087D02*
X2925Y1087D01*
X2952Y1087D02*
X3025Y1087D01*
X3052Y1087D02*
X3125Y1087D01*
X3152Y1087D02*
X3225Y1087D01*
X3252Y1087D02*
X3325Y1087D01*
X3352Y1087D02*
X3425Y1087D01*
X3452Y1087D02*
X3525Y1087D01*
X3552Y1087D02*
X3625Y1087D01*
X2651Y1086D02*
X2726Y1086D01*
X2751Y1086D02*
X2826Y1086D01*
X2851Y1086D02*
X2926Y1086D01*
X2951Y1086D02*
X3026Y1086D01*
X3051Y1086D02*
X3126Y1086D01*
X3151Y1086D02*
X3226Y1086D01*
X3251Y1086D02*
X3326Y1086D01*
X3351Y1086D02*
X3426Y1086D01*
X3451Y1086D02*
X3526Y1086D01*
X3551Y1086D02*
X3626Y1086D01*
X2651Y1085D02*
X2726Y1085D01*
X2751Y1085D02*
X2826Y1085D01*
X2851Y1085D02*
X2926Y1085D01*
X2951Y1085D02*
X3026Y1085D01*
X3051Y1085D02*
X3126Y1085D01*
X3151Y1085D02*
X3226Y1085D01*
X3251Y1085D02*
X3326Y1085D01*
X3351Y1085D02*
X3426Y1085D01*
X3451Y1085D02*
X3526Y1085D01*
X3551Y1085D02*
X3626Y1085D01*
X2651Y1084D02*
X2726Y1084D01*
X2751Y1084D02*
X2826Y1084D01*
X2851Y1084D02*
X2926Y1084D01*
X2951Y1084D02*
X3026Y1084D01*
X3051Y1084D02*
X3126Y1084D01*
X3151Y1084D02*
X3226Y1084D01*
X3251Y1084D02*
X3326Y1084D01*
X3351Y1084D02*
X3426Y1084D01*
X3451Y1084D02*
X3526Y1084D01*
X3551Y1084D02*
X3626Y1084D01*
X2650Y1083D02*
X2727Y1083D01*
X2750Y1083D02*
X2827Y1083D01*
X2850Y1083D02*
X2927Y1083D01*
X2950Y1083D02*
X3027Y1083D01*
X3050Y1083D02*
X3127Y1083D01*
X3150Y1083D02*
X3227Y1083D01*
X3250Y1083D02*
X3327Y1083D01*
X3350Y1083D02*
X3427Y1083D01*
X3450Y1083D02*
X3527Y1083D01*
X3550Y1083D02*
X3627Y1083D01*
X2650Y1082D02*
X2727Y1082D01*
X2750Y1082D02*
X2827Y1082D01*
X2850Y1082D02*
X2927Y1082D01*
X2950Y1082D02*
X3027Y1082D01*
X3050Y1082D02*
X3127Y1082D01*
X3150Y1082D02*
X3227Y1082D01*
X3250Y1082D02*
X3327Y1082D01*
X3350Y1082D02*
X3427Y1082D01*
X3450Y1082D02*
X3527Y1082D01*
X3550Y1082D02*
X3627Y1082D01*
X2650Y1081D02*
X2727Y1081D01*
X2750Y1081D02*
X2827Y1081D01*
X2850Y1081D02*
X2927Y1081D01*
X2950Y1081D02*
X3027Y1081D01*
X3050Y1081D02*
X3127Y1081D01*
X3150Y1081D02*
X3227Y1081D01*
X3250Y1081D02*
X3327Y1081D01*
X3350Y1081D02*
X3427Y1081D01*
X3450Y1081D02*
X3527Y1081D01*
X3550Y1081D02*
X3627Y1081D01*
X2650Y1080D02*
X2727Y1080D01*
X2750Y1080D02*
X2827Y1080D01*
X2850Y1080D02*
X2927Y1080D01*
X2950Y1080D02*
X3027Y1080D01*
X3050Y1080D02*
X3127Y1080D01*
X3150Y1080D02*
X3227Y1080D01*
X3250Y1080D02*
X3327Y1080D01*
X3350Y1080D02*
X3427Y1080D01*
X3450Y1080D02*
X3527Y1080D01*
X3550Y1080D02*
X3627Y1080D01*
X2650Y1079D02*
X2728Y1079D01*
X2750Y1079D02*
X2828Y1079D01*
X2850Y1079D02*
X2928Y1079D01*
X2949Y1079D02*
X3028Y1079D01*
X3049Y1079D02*
X3128Y1079D01*
X3149Y1079D02*
X3228Y1079D01*
X3249Y1079D02*
X3328Y1079D01*
X3349Y1079D02*
X3428Y1079D01*
X3449Y1079D02*
X3527Y1079D01*
X3549Y1079D02*
X3627Y1079D01*
X2649Y1078D02*
X2728Y1078D01*
X2749Y1078D02*
X2828Y1078D01*
X2849Y1078D02*
X2928Y1078D01*
X2949Y1078D02*
X3028Y1078D01*
X3049Y1078D02*
X3128Y1078D01*
X3149Y1078D02*
X3228Y1078D01*
X3249Y1078D02*
X3328Y1078D01*
X3349Y1078D02*
X3428Y1078D01*
X3449Y1078D02*
X3528Y1078D01*
X3549Y1078D02*
X3628Y1078D01*
X2649Y1077D02*
X2728Y1077D01*
X2749Y1077D02*
X2828Y1077D01*
X2849Y1077D02*
X2928Y1077D01*
X2949Y1077D02*
X3028Y1077D01*
X3049Y1077D02*
X3128Y1077D01*
X3149Y1077D02*
X3228Y1077D01*
X3249Y1077D02*
X3328Y1077D01*
X3349Y1077D02*
X3428Y1077D01*
X3449Y1077D02*
X3528Y1077D01*
X3549Y1077D02*
X3628Y1077D01*
X2649Y1076D02*
X2728Y1076D01*
X2749Y1076D02*
X2828Y1076D01*
X2849Y1076D02*
X2928Y1076D01*
X2949Y1076D02*
X3028Y1076D01*
X3049Y1076D02*
X3128Y1076D01*
X3149Y1076D02*
X3228Y1076D01*
X3249Y1076D02*
X3328Y1076D01*
X3349Y1076D02*
X3428Y1076D01*
X3449Y1076D02*
X3528Y1076D01*
X3549Y1076D02*
X3628Y1076D01*
X2649Y1075D02*
X2728Y1075D01*
X2749Y1075D02*
X2828Y1075D01*
X2849Y1075D02*
X2928Y1075D01*
X2949Y1075D02*
X3028Y1075D01*
X3049Y1075D02*
X3128Y1075D01*
X3149Y1075D02*
X3228Y1075D01*
X3249Y1075D02*
X3328Y1075D01*
X3349Y1075D02*
X3428Y1075D01*
X3449Y1075D02*
X3528Y1075D01*
X3549Y1075D02*
X3628Y1075D01*
X2649Y1074D02*
X2728Y1074D01*
X2749Y1074D02*
X2828Y1074D01*
X2849Y1074D02*
X2928Y1074D01*
X2949Y1074D02*
X3028Y1074D01*
X3049Y1074D02*
X3128Y1074D01*
X3149Y1074D02*
X3228Y1074D01*
X3249Y1074D02*
X3328Y1074D01*
X3349Y1074D02*
X3428Y1074D01*
X3449Y1074D02*
X3528Y1074D01*
X3549Y1074D02*
X3628Y1074D01*
X2649Y1073D02*
X2728Y1073D01*
X2749Y1073D02*
X2828Y1073D01*
X2849Y1073D02*
X2928Y1073D01*
X2949Y1073D02*
X3028Y1073D01*
X3049Y1073D02*
X3128Y1073D01*
X3149Y1073D02*
X3228Y1073D01*
X3249Y1073D02*
X3328Y1073D01*
X3349Y1073D02*
X3428Y1073D01*
X3449Y1073D02*
X3528Y1073D01*
X3549Y1073D02*
X3628Y1073D01*
X2649Y1072D02*
X2728Y1072D01*
X2749Y1072D02*
X2828Y1072D01*
X2849Y1072D02*
X2928Y1072D01*
X2949Y1072D02*
X3028Y1072D01*
X3049Y1072D02*
X3128Y1072D01*
X3149Y1072D02*
X3228Y1072D01*
X3249Y1072D02*
X3328Y1072D01*
X3349Y1072D02*
X3428Y1072D01*
X3449Y1072D02*
X3528Y1072D01*
X3549Y1072D02*
X3628Y1072D01*
X2649Y1071D02*
X2728Y1071D01*
X2749Y1071D02*
X2828Y1071D01*
X2849Y1071D02*
X2928Y1071D01*
X2949Y1071D02*
X3028Y1071D01*
X3049Y1071D02*
X3128Y1071D01*
X3149Y1071D02*
X3228Y1071D01*
X3249Y1071D02*
X3328Y1071D01*
X3349Y1071D02*
X3428Y1071D01*
X3449Y1071D02*
X3528Y1071D01*
X3549Y1071D02*
X3628Y1071D01*
X2649Y1070D02*
X2728Y1070D01*
X2749Y1070D02*
X2828Y1070D01*
X2849Y1070D02*
X2928Y1070D01*
X2949Y1070D02*
X3028Y1070D01*
X3049Y1070D02*
X3128Y1070D01*
X3149Y1070D02*
X3228Y1070D01*
X3249Y1070D02*
X3328Y1070D01*
X3349Y1070D02*
X3428Y1070D01*
X3449Y1070D02*
X3528Y1070D01*
X3549Y1070D02*
X3628Y1070D01*
X2650Y1069D02*
X2728Y1069D01*
X2749Y1069D02*
X2828Y1069D01*
X2849Y1069D02*
X2928Y1069D01*
X2949Y1069D02*
X3028Y1069D01*
X3049Y1069D02*
X3128Y1069D01*
X3149Y1069D02*
X3228Y1069D01*
X3249Y1069D02*
X3328Y1069D01*
X3349Y1069D02*
X3428Y1069D01*
X3449Y1069D02*
X3528Y1069D01*
X3549Y1069D02*
X3628Y1069D01*
X2650Y1068D02*
X2727Y1068D01*
X2750Y1068D02*
X2827Y1068D01*
X2850Y1068D02*
X2927Y1068D01*
X2950Y1068D02*
X3027Y1068D01*
X3050Y1068D02*
X3127Y1068D01*
X3150Y1068D02*
X3227Y1068D01*
X3250Y1068D02*
X3327Y1068D01*
X3350Y1068D02*
X3427Y1068D01*
X3450Y1068D02*
X3527Y1068D01*
X3550Y1068D02*
X3627Y1068D01*
X2650Y1067D02*
X2727Y1067D01*
X2750Y1067D02*
X2827Y1067D01*
X2850Y1067D02*
X2927Y1067D01*
X2950Y1067D02*
X3027Y1067D01*
X3050Y1067D02*
X3127Y1067D01*
X3150Y1067D02*
X3227Y1067D01*
X3250Y1067D02*
X3327Y1067D01*
X3350Y1067D02*
X3427Y1067D01*
X3450Y1067D02*
X3527Y1067D01*
X3550Y1067D02*
X3627Y1067D01*
X2650Y1066D02*
X2727Y1066D01*
X2750Y1066D02*
X2827Y1066D01*
X2850Y1066D02*
X2927Y1066D01*
X2950Y1066D02*
X3027Y1066D01*
X3050Y1066D02*
X3127Y1066D01*
X3150Y1066D02*
X3227Y1066D01*
X3250Y1066D02*
X3327Y1066D01*
X3350Y1066D02*
X3427Y1066D01*
X3450Y1066D02*
X3527Y1066D01*
X3550Y1066D02*
X3627Y1066D01*
X2650Y1065D02*
X2727Y1065D01*
X2750Y1065D02*
X2827Y1065D01*
X2850Y1065D02*
X2927Y1065D01*
X2950Y1065D02*
X3027Y1065D01*
X3050Y1065D02*
X3127Y1065D01*
X3150Y1065D02*
X3227Y1065D01*
X3250Y1065D02*
X3327Y1065D01*
X3350Y1065D02*
X3427Y1065D01*
X3450Y1065D02*
X3527Y1065D01*
X3550Y1065D02*
X3627Y1065D01*
X2651Y1064D02*
X2726Y1064D01*
X2751Y1064D02*
X2826Y1064D01*
X2851Y1064D02*
X2926Y1064D01*
X2951Y1064D02*
X3026Y1064D01*
X3051Y1064D02*
X3126Y1064D01*
X3151Y1064D02*
X3226Y1064D01*
X3251Y1064D02*
X3326Y1064D01*
X3351Y1064D02*
X3426Y1064D01*
X3451Y1064D02*
X3526Y1064D01*
X3551Y1064D02*
X3626Y1064D01*
X2651Y1063D02*
X2726Y1063D01*
X2751Y1063D02*
X2826Y1063D01*
X2851Y1063D02*
X2926Y1063D01*
X2951Y1063D02*
X3026Y1063D01*
X3051Y1063D02*
X3126Y1063D01*
X3151Y1063D02*
X3226Y1063D01*
X3251Y1063D02*
X3326Y1063D01*
X3351Y1063D02*
X3426Y1063D01*
X3451Y1063D02*
X3526Y1063D01*
X3551Y1063D02*
X3626Y1063D01*
X2651Y1062D02*
X2726Y1062D01*
X2751Y1062D02*
X2826Y1062D01*
X2851Y1062D02*
X2926Y1062D01*
X2951Y1062D02*
X3026Y1062D01*
X3051Y1062D02*
X3126Y1062D01*
X3151Y1062D02*
X3226Y1062D01*
X3251Y1062D02*
X3326Y1062D01*
X3351Y1062D02*
X3426Y1062D01*
X3451Y1062D02*
X3526Y1062D01*
X3551Y1062D02*
X3626Y1062D01*
X2652Y1061D02*
X2725Y1061D01*
X2752Y1061D02*
X2825Y1061D01*
X2852Y1061D02*
X2925Y1061D01*
X2952Y1061D02*
X3025Y1061D01*
X3052Y1061D02*
X3125Y1061D01*
X3152Y1061D02*
X3225Y1061D01*
X3252Y1061D02*
X3325Y1061D01*
X3352Y1061D02*
X3425Y1061D01*
X3452Y1061D02*
X3525Y1061D01*
X3552Y1061D02*
X3625Y1061D01*
X2652Y1060D02*
X2725Y1060D01*
X2752Y1060D02*
X2825Y1060D01*
X2852Y1060D02*
X2925Y1060D01*
X2952Y1060D02*
X3025Y1060D01*
X3052Y1060D02*
X3125Y1060D01*
X3152Y1060D02*
X3225Y1060D01*
X3252Y1060D02*
X3325Y1060D01*
X3352Y1060D02*
X3425Y1060D01*
X3452Y1060D02*
X3525Y1060D01*
X3552Y1060D02*
X3625Y1060D01*
X2653Y1059D02*
X2724Y1059D01*
X2753Y1059D02*
X2824Y1059D01*
X2853Y1059D02*
X2924Y1059D01*
X2953Y1059D02*
X3024Y1059D01*
X3053Y1059D02*
X3124Y1059D01*
X3153Y1059D02*
X3224Y1059D01*
X3253Y1059D02*
X3324Y1059D01*
X3353Y1059D02*
X3424Y1059D01*
X3453Y1059D02*
X3524Y1059D01*
X3553Y1059D02*
X3624Y1059D01*
X2653Y1058D02*
X2724Y1058D01*
X2753Y1058D02*
X2824Y1058D01*
X2853Y1058D02*
X2924Y1058D01*
X2953Y1058D02*
X3024Y1058D01*
X3053Y1058D02*
X3124Y1058D01*
X3153Y1058D02*
X3224Y1058D01*
X3253Y1058D02*
X3324Y1058D01*
X3353Y1058D02*
X3424Y1058D01*
X3453Y1058D02*
X3524Y1058D01*
X3553Y1058D02*
X3624Y1058D01*
X2654Y1057D02*
X2723Y1057D01*
X2754Y1057D02*
X2823Y1057D01*
X2854Y1057D02*
X2923Y1057D01*
X2954Y1057D02*
X3023Y1057D01*
X3054Y1057D02*
X3123Y1057D01*
X3154Y1057D02*
X3223Y1057D01*
X3254Y1057D02*
X3323Y1057D01*
X3354Y1057D02*
X3423Y1057D01*
X3454Y1057D02*
X3523Y1057D01*
X3554Y1057D02*
X3623Y1057D01*
X2654Y1056D02*
X2723Y1056D01*
X2754Y1056D02*
X2823Y1056D01*
X2854Y1056D02*
X2923Y1056D01*
X2954Y1056D02*
X3023Y1056D01*
X3054Y1056D02*
X3123Y1056D01*
X3154Y1056D02*
X3223Y1056D01*
X3254Y1056D02*
X3323Y1056D01*
X3354Y1056D02*
X3423Y1056D01*
X3454Y1056D02*
X3523Y1056D01*
X3554Y1056D02*
X3623Y1056D01*
X2655Y1055D02*
X2722Y1055D01*
X2755Y1055D02*
X2822Y1055D01*
X2855Y1055D02*
X2922Y1055D01*
X2955Y1055D02*
X3022Y1055D01*
X3055Y1055D02*
X3122Y1055D01*
X3155Y1055D02*
X3222Y1055D01*
X3255Y1055D02*
X3322Y1055D01*
X3355Y1055D02*
X3422Y1055D01*
X3455Y1055D02*
X3522Y1055D01*
X3555Y1055D02*
X3622Y1055D01*
X2655Y1054D02*
X2722Y1054D01*
X2755Y1054D02*
X2822Y1054D01*
X2855Y1054D02*
X2922Y1054D01*
X2955Y1054D02*
X3022Y1054D01*
X3055Y1054D02*
X3122Y1054D01*
X3155Y1054D02*
X3222Y1054D01*
X3255Y1054D02*
X3322Y1054D01*
X3355Y1054D02*
X3422Y1054D01*
X3455Y1054D02*
X3522Y1054D01*
X3555Y1054D02*
X3622Y1054D01*
X2656Y1053D02*
X2721Y1053D01*
X2756Y1053D02*
X2821Y1053D01*
X2856Y1053D02*
X2921Y1053D01*
X2956Y1053D02*
X3021Y1053D01*
X3056Y1053D02*
X3121Y1053D01*
X3156Y1053D02*
X3221Y1053D01*
X3256Y1053D02*
X3321Y1053D01*
X3356Y1053D02*
X3421Y1053D01*
X3456Y1053D02*
X3521Y1053D01*
X3556Y1053D02*
X3621Y1053D01*
X2657Y1052D02*
X2720Y1052D01*
X2757Y1052D02*
X2820Y1052D01*
X2857Y1052D02*
X2920Y1052D01*
X2957Y1052D02*
X3020Y1052D01*
X3057Y1052D02*
X3120Y1052D01*
X3157Y1052D02*
X3220Y1052D01*
X3257Y1052D02*
X3320Y1052D01*
X3357Y1052D02*
X3420Y1052D01*
X3457Y1052D02*
X3520Y1052D01*
X3557Y1052D02*
X3620Y1052D01*
X2658Y1051D02*
X2720Y1051D01*
X2758Y1051D02*
X2820Y1051D01*
X2858Y1051D02*
X2919Y1051D01*
X2958Y1051D02*
X3019Y1051D01*
X3058Y1051D02*
X3119Y1051D01*
X3158Y1051D02*
X3219Y1051D01*
X3258Y1051D02*
X3319Y1051D01*
X3358Y1051D02*
X3419Y1051D01*
X3458Y1051D02*
X3519Y1051D01*
X3558Y1051D02*
X3619Y1051D01*
X2658Y1050D02*
X2719Y1050D01*
X2758Y1050D02*
X2819Y1050D01*
X2858Y1050D02*
X2919Y1050D01*
X2958Y1050D02*
X3019Y1050D01*
X3058Y1050D02*
X3119Y1050D01*
X3158Y1050D02*
X3219Y1050D01*
X3258Y1050D02*
X3319Y1050D01*
X3358Y1050D02*
X3419Y1050D01*
X3458Y1050D02*
X3519Y1050D01*
X3558Y1050D02*
X3619Y1050D01*
X2659Y1049D02*
X2718Y1049D01*
X2759Y1049D02*
X2818Y1049D01*
X2859Y1049D02*
X2918Y1049D01*
X2959Y1049D02*
X3018Y1049D01*
X3059Y1049D02*
X3118Y1049D01*
X3159Y1049D02*
X3218Y1049D01*
X3259Y1049D02*
X3318Y1049D01*
X3359Y1049D02*
X3418Y1049D01*
X3459Y1049D02*
X3518Y1049D01*
X3559Y1049D02*
X3618Y1049D01*
X2660Y1048D02*
X2717Y1048D01*
X2760Y1048D02*
X2817Y1048D01*
X2860Y1048D02*
X2917Y1048D01*
X2960Y1048D02*
X3017Y1048D01*
X3060Y1048D02*
X3117Y1048D01*
X3160Y1048D02*
X3217Y1048D01*
X3260Y1048D02*
X3317Y1048D01*
X3360Y1048D02*
X3417Y1048D01*
X3460Y1048D02*
X3517Y1048D01*
X3560Y1048D02*
X3617Y1048D01*
X2661Y1047D02*
X2716Y1047D01*
X2761Y1047D02*
X2816Y1047D01*
X2861Y1047D02*
X2916Y1047D01*
X2961Y1047D02*
X3016Y1047D01*
X3061Y1047D02*
X3116Y1047D01*
X3161Y1047D02*
X3216Y1047D01*
X3261Y1047D02*
X3316Y1047D01*
X3361Y1047D02*
X3416Y1047D01*
X3461Y1047D02*
X3516Y1047D01*
X3561Y1047D02*
X3616Y1047D01*
X2662Y1046D02*
X2715Y1046D01*
X2762Y1046D02*
X2815Y1046D01*
X2862Y1046D02*
X2915Y1046D01*
X2962Y1046D02*
X3015Y1046D01*
X3062Y1046D02*
X3115Y1046D01*
X3162Y1046D02*
X3215Y1046D01*
X3262Y1046D02*
X3315Y1046D01*
X3362Y1046D02*
X3415Y1046D01*
X3462Y1046D02*
X3515Y1046D01*
X3562Y1046D02*
X3615Y1046D01*
X2663Y1045D02*
X2714Y1045D01*
X2763Y1045D02*
X2814Y1045D01*
X2863Y1045D02*
X2914Y1045D01*
X2963Y1045D02*
X3014Y1045D01*
X3063Y1045D02*
X3114Y1045D01*
X3163Y1045D02*
X3214Y1045D01*
X3263Y1045D02*
X3314Y1045D01*
X3363Y1045D02*
X3414Y1045D01*
X3463Y1045D02*
X3514Y1045D01*
X3563Y1045D02*
X3614Y1045D01*
X2664Y1044D02*
X2713Y1044D01*
X2764Y1044D02*
X2813Y1044D01*
X2864Y1044D02*
X2913Y1044D01*
X2964Y1044D02*
X3013Y1044D01*
X3064Y1044D02*
X3113Y1044D01*
X3164Y1044D02*
X3213Y1044D01*
X3264Y1044D02*
X3313Y1044D01*
X3364Y1044D02*
X3413Y1044D01*
X3464Y1044D02*
X3513Y1044D01*
X3564Y1044D02*
X3613Y1044D01*
X2665Y1043D02*
X2712Y1043D01*
X2765Y1043D02*
X2812Y1043D01*
X2865Y1043D02*
X2912Y1043D01*
X2965Y1043D02*
X3012Y1043D01*
X3065Y1043D02*
X3112Y1043D01*
X3165Y1043D02*
X3212Y1043D01*
X3265Y1043D02*
X3312Y1043D01*
X3365Y1043D02*
X3412Y1043D01*
X3465Y1043D02*
X3512Y1043D01*
X3565Y1043D02*
X3612Y1043D01*
X2667Y1042D02*
X2710Y1042D01*
X2767Y1042D02*
X2810Y1042D01*
X2867Y1042D02*
X2910Y1042D01*
X2967Y1042D02*
X3010Y1042D01*
X3067Y1042D02*
X3110Y1042D01*
X3167Y1042D02*
X3210Y1042D01*
X3267Y1042D02*
X3310Y1042D01*
X3367Y1042D02*
X3410Y1042D01*
X3467Y1042D02*
X3510Y1042D01*
X3567Y1042D02*
X3610Y1042D01*
X2668Y1041D02*
X2709Y1041D01*
X2768Y1041D02*
X2809Y1041D01*
X2868Y1041D02*
X2909Y1041D01*
X2968Y1041D02*
X3009Y1041D01*
X3068Y1041D02*
X3109Y1041D01*
X3168Y1041D02*
X3209Y1041D01*
X3268Y1041D02*
X3309Y1041D01*
X3368Y1041D02*
X3409Y1041D01*
X3468Y1041D02*
X3509Y1041D01*
X3568Y1041D02*
X3609Y1041D01*
X2670Y1040D02*
X2707Y1040D01*
X2770Y1040D02*
X2807Y1040D01*
X2870Y1040D02*
X2907Y1040D01*
X2970Y1040D02*
X3007Y1040D01*
X3070Y1040D02*
X3107Y1040D01*
X3170Y1040D02*
X3207Y1040D01*
X3270Y1040D02*
X3307Y1040D01*
X3370Y1040D02*
X3407Y1040D01*
X3470Y1040D02*
X3507Y1040D01*
X3570Y1040D02*
X3607Y1040D01*
X2671Y1039D02*
X2706Y1039D01*
X2771Y1039D02*
X2806Y1039D01*
X2871Y1039D02*
X2906Y1039D01*
X2971Y1039D02*
X3006Y1039D01*
X3071Y1039D02*
X3106Y1039D01*
X3171Y1039D02*
X3206Y1039D01*
X3271Y1039D02*
X3306Y1039D01*
X3371Y1039D02*
X3406Y1039D01*
X3471Y1039D02*
X3506Y1039D01*
X3571Y1039D02*
X3606Y1039D01*
X2673Y1038D02*
X2704Y1038D01*
X2773Y1038D02*
X2804Y1038D01*
X2873Y1038D02*
X2904Y1038D01*
X2973Y1038D02*
X3004Y1038D01*
X3073Y1038D02*
X3104Y1038D01*
X3173Y1038D02*
X3204Y1038D01*
X3273Y1038D02*
X3304Y1038D01*
X3373Y1038D02*
X3404Y1038D01*
X3473Y1038D02*
X3504Y1038D01*
X3573Y1038D02*
X3604Y1038D01*
X2675Y1037D02*
X2702Y1037D01*
X2775Y1037D02*
X2802Y1037D01*
X2875Y1037D02*
X2902Y1037D01*
X2975Y1037D02*
X3002Y1037D01*
X3075Y1037D02*
X3102Y1037D01*
X3175Y1037D02*
X3202Y1037D01*
X3275Y1037D02*
X3302Y1037D01*
X3375Y1037D02*
X3402Y1037D01*
X3475Y1037D02*
X3502Y1037D01*
X3575Y1037D02*
X3602Y1037D01*
X2678Y1036D02*
X2699Y1036D01*
X2778Y1036D02*
X2799Y1036D01*
X2878Y1036D02*
X2899Y1036D01*
X2978Y1036D02*
X2999Y1036D01*
X3078Y1036D02*
X3099Y1036D01*
X3178Y1036D02*
X3199Y1036D01*
X3278Y1036D02*
X3299Y1036D01*
X3378Y1036D02*
X3399Y1036D01*
X3478Y1036D02*
X3499Y1036D01*
X3578Y1036D02*
X3599Y1036D01*
X2681Y1035D02*
X2696Y1035D01*
X2781Y1035D02*
X2796Y1035D01*
X2881Y1035D02*
X2896Y1035D01*
X2981Y1035D02*
X2996Y1035D01*
X3081Y1035D02*
X3096Y1035D01*
X3181Y1035D02*
X3196Y1035D01*
X3281Y1035D02*
X3296Y1035D01*
X3381Y1035D02*
X3396Y1035D01*
X3481Y1035D02*
X3496Y1035D01*
X3581Y1035D02*
X3596Y1035D01*
X2688Y1034D02*
X2689Y1034D01*
X2788Y1034D02*
X2789Y1034D01*
X2888Y1034D02*
X2889Y1034D01*
X2988Y1034D02*
X2989Y1034D01*
X3088Y1034D02*
X3089Y1034D01*
X3188Y1034D02*
X3189Y1034D01*
X3288Y1034D02*
X3289Y1034D01*
X3388Y1034D02*
X3389Y1034D01*
X3488Y1034D02*
X3489Y1034D01*
X3588Y1034D02*
X3589Y1034D01*
D02*
G04 End of Mask1*
M02*