G04 MADE WITH FRITZING*
G04 WWW.FRITZING.ORG*
G04 DOUBLE SIDED*
G04 HOLES PLATED*
G04 CONTOUR ON CENTER OF CONTOUR VECTOR*
%ASAXBY*%
%FSLAX23Y23*%
%MOIN*%
%OFA0B0*%
%SFA1.0B1.0*%
%ADD10C,0.057511*%
%ADD11C,0.057533*%
%ADD12C,0.070000*%
%ADD13C,0.078000*%
%ADD14C,0.125984*%
%ADD15C,0.039370*%
%ADD16R,0.070000X0.070000*%
%ADD17C,0.024000*%
%ADD18R,0.001000X0.001000*%
%LNCOPPER1*%
G90*
G70*
G54D10*
X284Y1030D03*
X364Y1030D03*
X444Y1030D03*
X524Y1030D03*
G54D11*
X604Y1030D03*
G54D10*
X684Y1030D03*
X764Y1030D03*
X844Y1030D03*
X924Y1030D03*
G54D11*
X1004Y1030D03*
G54D10*
X1084Y1030D03*
G54D11*
X1164Y1030D03*
G54D10*
X1244Y1030D03*
X1324Y1030D03*
X1404Y1030D03*
X1484Y1030D03*
G54D11*
X1564Y1030D03*
G54D10*
X1644Y1030D03*
X1724Y1030D03*
X1804Y1030D03*
X1804Y1110D03*
X1724Y1110D03*
X1644Y1110D03*
G54D11*
X1564Y1110D03*
G54D10*
X1484Y1110D03*
X1404Y1110D03*
X1324Y1110D03*
X1244Y1110D03*
G54D11*
X1164Y1110D03*
G54D10*
X1084Y1110D03*
G54D11*
X1004Y1110D03*
G54D10*
X924Y1110D03*
X844Y1110D03*
X764Y1110D03*
X684Y1110D03*
G54D11*
X604Y1110D03*
G54D10*
X524Y1110D03*
X444Y1110D03*
X364Y1110D03*
X284Y1110D03*
G54D12*
X5030Y1115D03*
X4930Y1115D03*
X4830Y1115D03*
X4730Y1115D03*
X4630Y1115D03*
G54D13*
X5962Y1101D03*
X5862Y1101D03*
X5762Y1101D03*
X5662Y1101D03*
X5962Y1101D03*
X5862Y1101D03*
X5762Y1101D03*
X5662Y1101D03*
X5253Y1102D03*
X5353Y1102D03*
X5453Y1102D03*
X5553Y1102D03*
G54D14*
X3805Y930D03*
G54D12*
X4380Y1105D03*
X4280Y1105D03*
X4180Y1105D03*
X4080Y1105D03*
X3980Y1105D03*
X3880Y1105D03*
X3780Y1105D03*
G54D14*
X3805Y530D03*
X4355Y530D03*
X4355Y930D03*
G54D12*
X3589Y1073D03*
X3489Y1073D03*
X3389Y1073D03*
X3289Y1073D03*
X3189Y1073D03*
X3089Y1073D03*
X2989Y1073D03*
X2889Y1073D03*
X2789Y1073D03*
X2689Y1073D03*
G54D15*
X3732Y828D03*
X3588Y924D03*
G54D16*
X5030Y1115D03*
X4380Y1105D03*
G54D17*
X3004Y1094D02*
X3036Y1140D01*
X3036Y1140D02*
X3660Y1140D01*
X3660Y1140D02*
X3750Y1114D01*
D02*
X2906Y1093D02*
X2988Y1188D01*
X2988Y1188D02*
X3828Y1188D01*
X3828Y1188D02*
X3863Y1131D01*
D02*
X1810Y1002D02*
X1812Y996D01*
X1812Y996D02*
X3444Y996D01*
X3444Y996D02*
X3476Y1050D01*
D02*
X3605Y1052D02*
X3612Y1044D01*
X3612Y1044D02*
X4356Y1044D01*
X4356Y1044D02*
X4369Y1077D01*
D02*
X935Y1004D02*
X948Y972D01*
X948Y972D02*
X1764Y948D01*
X1764Y948D02*
X3516Y948D01*
X3516Y948D02*
X3576Y1050D01*
D02*
X5657Y1072D02*
X5652Y1044D01*
X5652Y1044D02*
X4668Y1044D01*
X4668Y1044D02*
X4645Y1088D01*
D02*
X3751Y828D02*
X4428Y828D01*
X4428Y828D02*
X4452Y1068D01*
X4452Y1068D02*
X4601Y1107D01*
D02*
X5750Y1129D02*
X5724Y1188D01*
X5724Y1188D02*
X4788Y1188D01*
X4788Y1188D02*
X4750Y1139D01*
D02*
X3599Y908D02*
X3684Y780D01*
X3684Y780D02*
X4476Y780D01*
X4476Y780D02*
X5700Y996D01*
X5700Y996D02*
X5747Y1075D01*
D02*
X444Y1002D02*
X444Y996D01*
X444Y996D02*
X900Y900D01*
X900Y900D02*
X3564Y900D01*
X3564Y900D02*
X3575Y910D01*
G54D18*
X2682Y1108D02*
X2695Y1108D01*
X2782Y1108D02*
X2795Y1108D01*
X2882Y1108D02*
X2895Y1108D01*
X2982Y1108D02*
X2995Y1108D01*
X3082Y1108D02*
X3095Y1108D01*
X3182Y1108D02*
X3195Y1108D01*
X3282Y1108D02*
X3295Y1108D01*
X3382Y1108D02*
X3395Y1108D01*
X3482Y1108D02*
X3495Y1108D01*
X3582Y1108D02*
X3595Y1108D01*
X2679Y1107D02*
X2699Y1107D01*
X2779Y1107D02*
X2799Y1107D01*
X2879Y1107D02*
X2899Y1107D01*
X2979Y1107D02*
X2999Y1107D01*
X3079Y1107D02*
X3099Y1107D01*
X3179Y1107D02*
X3199Y1107D01*
X3278Y1107D02*
X3298Y1107D01*
X3378Y1107D02*
X3398Y1107D01*
X3478Y1107D02*
X3498Y1107D01*
X3578Y1107D02*
X3598Y1107D01*
X2676Y1106D02*
X2701Y1106D01*
X2776Y1106D02*
X2801Y1106D01*
X2876Y1106D02*
X2901Y1106D01*
X2976Y1106D02*
X3001Y1106D01*
X3076Y1106D02*
X3101Y1106D01*
X3176Y1106D02*
X3201Y1106D01*
X3276Y1106D02*
X3301Y1106D01*
X3376Y1106D02*
X3401Y1106D01*
X3476Y1106D02*
X3501Y1106D01*
X3576Y1106D02*
X3601Y1106D01*
X2674Y1105D02*
X2703Y1105D01*
X2774Y1105D02*
X2803Y1105D01*
X2874Y1105D02*
X2903Y1105D01*
X2974Y1105D02*
X3003Y1105D01*
X3074Y1105D02*
X3103Y1105D01*
X3174Y1105D02*
X3203Y1105D01*
X3274Y1105D02*
X3303Y1105D01*
X3374Y1105D02*
X3403Y1105D01*
X3474Y1105D02*
X3503Y1105D01*
X3574Y1105D02*
X3603Y1105D01*
X2672Y1104D02*
X2705Y1104D01*
X2772Y1104D02*
X2805Y1104D01*
X2872Y1104D02*
X2905Y1104D01*
X2972Y1104D02*
X3005Y1104D01*
X3072Y1104D02*
X3105Y1104D01*
X3172Y1104D02*
X3205Y1104D01*
X3272Y1104D02*
X3305Y1104D01*
X3372Y1104D02*
X3405Y1104D01*
X3472Y1104D02*
X3505Y1104D01*
X3572Y1104D02*
X3605Y1104D01*
X2671Y1103D02*
X2706Y1103D01*
X2771Y1103D02*
X2806Y1103D01*
X2871Y1103D02*
X2906Y1103D01*
X2971Y1103D02*
X3006Y1103D01*
X3071Y1103D02*
X3106Y1103D01*
X3171Y1103D02*
X3206Y1103D01*
X3271Y1103D02*
X3306Y1103D01*
X3371Y1103D02*
X3406Y1103D01*
X3471Y1103D02*
X3506Y1103D01*
X3571Y1103D02*
X3606Y1103D01*
X2669Y1102D02*
X2708Y1102D01*
X2769Y1102D02*
X2808Y1102D01*
X2869Y1102D02*
X2908Y1102D01*
X2969Y1102D02*
X3008Y1102D01*
X3069Y1102D02*
X3108Y1102D01*
X3169Y1102D02*
X3208Y1102D01*
X3269Y1102D02*
X3308Y1102D01*
X3369Y1102D02*
X3408Y1102D01*
X3469Y1102D02*
X3508Y1102D01*
X3569Y1102D02*
X3608Y1102D01*
X2668Y1101D02*
X2709Y1101D01*
X2768Y1101D02*
X2809Y1101D01*
X2868Y1101D02*
X2909Y1101D01*
X2968Y1101D02*
X3009Y1101D01*
X3068Y1101D02*
X3109Y1101D01*
X3168Y1101D02*
X3209Y1101D01*
X3268Y1101D02*
X3309Y1101D01*
X3368Y1101D02*
X3409Y1101D01*
X3468Y1101D02*
X3509Y1101D01*
X3568Y1101D02*
X3609Y1101D01*
X2667Y1100D02*
X2710Y1100D01*
X2767Y1100D02*
X2810Y1100D01*
X2867Y1100D02*
X2910Y1100D01*
X2967Y1100D02*
X3010Y1100D01*
X3067Y1100D02*
X3110Y1100D01*
X3167Y1100D02*
X3210Y1100D01*
X3267Y1100D02*
X3310Y1100D01*
X3367Y1100D02*
X3410Y1100D01*
X3467Y1100D02*
X3510Y1100D01*
X3567Y1100D02*
X3610Y1100D01*
X2666Y1099D02*
X2711Y1099D01*
X2766Y1099D02*
X2811Y1099D01*
X2866Y1099D02*
X2911Y1099D01*
X2966Y1099D02*
X3011Y1099D01*
X3066Y1099D02*
X3111Y1099D01*
X3166Y1099D02*
X3211Y1099D01*
X3266Y1099D02*
X3311Y1099D01*
X3366Y1099D02*
X3411Y1099D01*
X3466Y1099D02*
X3511Y1099D01*
X3566Y1099D02*
X3611Y1099D01*
X2665Y1098D02*
X2712Y1098D01*
X2765Y1098D02*
X2812Y1098D01*
X2865Y1098D02*
X2912Y1098D01*
X2965Y1098D02*
X3012Y1098D01*
X3065Y1098D02*
X3112Y1098D01*
X3165Y1098D02*
X3212Y1098D01*
X3265Y1098D02*
X3312Y1098D01*
X3365Y1098D02*
X3412Y1098D01*
X3465Y1098D02*
X3512Y1098D01*
X3565Y1098D02*
X3612Y1098D01*
X2664Y1097D02*
X2713Y1097D01*
X2764Y1097D02*
X2813Y1097D01*
X2864Y1097D02*
X2913Y1097D01*
X2964Y1097D02*
X3013Y1097D01*
X3064Y1097D02*
X3113Y1097D01*
X3164Y1097D02*
X3213Y1097D01*
X3264Y1097D02*
X3313Y1097D01*
X3364Y1097D02*
X3413Y1097D01*
X3464Y1097D02*
X3513Y1097D01*
X3564Y1097D02*
X3613Y1097D01*
X2663Y1096D02*
X2714Y1096D01*
X2763Y1096D02*
X2814Y1096D01*
X2863Y1096D02*
X2914Y1096D01*
X2963Y1096D02*
X3014Y1096D01*
X3063Y1096D02*
X3114Y1096D01*
X3163Y1096D02*
X3214Y1096D01*
X3263Y1096D02*
X3314Y1096D01*
X3363Y1096D02*
X3414Y1096D01*
X3463Y1096D02*
X3514Y1096D01*
X3563Y1096D02*
X3614Y1096D01*
X2662Y1095D02*
X2715Y1095D01*
X2762Y1095D02*
X2815Y1095D01*
X2862Y1095D02*
X2915Y1095D01*
X2962Y1095D02*
X3015Y1095D01*
X3062Y1095D02*
X3115Y1095D01*
X3162Y1095D02*
X3215Y1095D01*
X3262Y1095D02*
X3315Y1095D01*
X3362Y1095D02*
X3415Y1095D01*
X3462Y1095D02*
X3515Y1095D01*
X3562Y1095D02*
X3615Y1095D01*
X2661Y1094D02*
X2716Y1094D01*
X2761Y1094D02*
X2816Y1094D01*
X2861Y1094D02*
X2916Y1094D01*
X2961Y1094D02*
X3016Y1094D01*
X3061Y1094D02*
X3116Y1094D01*
X3161Y1094D02*
X3216Y1094D01*
X3261Y1094D02*
X3316Y1094D01*
X3361Y1094D02*
X3416Y1094D01*
X3461Y1094D02*
X3516Y1094D01*
X3561Y1094D02*
X3616Y1094D01*
X2660Y1093D02*
X2717Y1093D01*
X2760Y1093D02*
X2817Y1093D01*
X2860Y1093D02*
X2917Y1093D01*
X2960Y1093D02*
X3017Y1093D01*
X3060Y1093D02*
X3117Y1093D01*
X3160Y1093D02*
X3217Y1093D01*
X3260Y1093D02*
X3317Y1093D01*
X3360Y1093D02*
X3417Y1093D01*
X3460Y1093D02*
X3517Y1093D01*
X3560Y1093D02*
X3617Y1093D01*
X2660Y1092D02*
X2717Y1092D01*
X2760Y1092D02*
X2817Y1092D01*
X2860Y1092D02*
X2917Y1092D01*
X2960Y1092D02*
X3017Y1092D01*
X3060Y1092D02*
X3117Y1092D01*
X3160Y1092D02*
X3217Y1092D01*
X3260Y1092D02*
X3317Y1092D01*
X3360Y1092D02*
X3417Y1092D01*
X3460Y1092D02*
X3517Y1092D01*
X3560Y1092D02*
X3617Y1092D01*
X2659Y1091D02*
X2718Y1091D01*
X2759Y1091D02*
X2818Y1091D01*
X2859Y1091D02*
X2918Y1091D01*
X2959Y1091D02*
X3018Y1091D01*
X3059Y1091D02*
X3118Y1091D01*
X3159Y1091D02*
X3218Y1091D01*
X3259Y1091D02*
X3318Y1091D01*
X3359Y1091D02*
X3418Y1091D01*
X3459Y1091D02*
X3518Y1091D01*
X3559Y1091D02*
X3618Y1091D01*
X2659Y1090D02*
X2719Y1090D01*
X2759Y1090D02*
X2819Y1090D01*
X2859Y1090D02*
X2919Y1090D01*
X2959Y1090D02*
X3019Y1090D01*
X3059Y1090D02*
X3119Y1090D01*
X3159Y1090D02*
X3218Y1090D01*
X3259Y1090D02*
X3318Y1090D01*
X3358Y1090D02*
X3418Y1090D01*
X3458Y1090D02*
X3518Y1090D01*
X3558Y1090D02*
X3618Y1090D01*
X2658Y1089D02*
X2719Y1089D01*
X2758Y1089D02*
X2819Y1089D01*
X2858Y1089D02*
X2919Y1089D01*
X2958Y1089D02*
X3019Y1089D01*
X3058Y1089D02*
X3119Y1089D01*
X3158Y1089D02*
X3219Y1089D01*
X3258Y1089D02*
X3319Y1089D01*
X3358Y1089D02*
X3419Y1089D01*
X3458Y1089D02*
X3519Y1089D01*
X3558Y1089D02*
X3619Y1089D01*
X2658Y1088D02*
X2682Y1088D01*
X2695Y1088D02*
X2720Y1088D01*
X2758Y1088D02*
X2782Y1088D01*
X2795Y1088D02*
X2820Y1088D01*
X2858Y1088D02*
X2882Y1088D01*
X2895Y1088D02*
X2920Y1088D01*
X2958Y1088D02*
X2982Y1088D01*
X2995Y1088D02*
X3020Y1088D01*
X3057Y1088D02*
X3082Y1088D01*
X3095Y1088D02*
X3120Y1088D01*
X3157Y1088D02*
X3182Y1088D01*
X3195Y1088D02*
X3220Y1088D01*
X3257Y1088D02*
X3282Y1088D01*
X3295Y1088D02*
X3320Y1088D01*
X3357Y1088D02*
X3382Y1088D01*
X3395Y1088D02*
X3420Y1088D01*
X3457Y1088D02*
X3482Y1088D01*
X3495Y1088D02*
X3519Y1088D01*
X3557Y1088D02*
X3582Y1088D01*
X3595Y1088D02*
X3619Y1088D01*
X2657Y1087D02*
X2680Y1087D01*
X2697Y1087D02*
X2720Y1087D01*
X2757Y1087D02*
X2780Y1087D01*
X2797Y1087D02*
X2820Y1087D01*
X2857Y1087D02*
X2880Y1087D01*
X2897Y1087D02*
X2920Y1087D01*
X2957Y1087D02*
X2980Y1087D01*
X2997Y1087D02*
X3020Y1087D01*
X3057Y1087D02*
X3080Y1087D01*
X3097Y1087D02*
X3120Y1087D01*
X3157Y1087D02*
X3180Y1087D01*
X3197Y1087D02*
X3220Y1087D01*
X3257Y1087D02*
X3280Y1087D01*
X3297Y1087D02*
X3320Y1087D01*
X3357Y1087D02*
X3380Y1087D01*
X3397Y1087D02*
X3420Y1087D01*
X3457Y1087D02*
X3480Y1087D01*
X3497Y1087D02*
X3520Y1087D01*
X3557Y1087D02*
X3580Y1087D01*
X3597Y1087D02*
X3620Y1087D01*
X2657Y1086D02*
X2678Y1086D01*
X2699Y1086D02*
X2721Y1086D01*
X2757Y1086D02*
X2778Y1086D01*
X2799Y1086D02*
X2821Y1086D01*
X2857Y1086D02*
X2878Y1086D01*
X2899Y1086D02*
X2920Y1086D01*
X2957Y1086D02*
X2978Y1086D01*
X2999Y1086D02*
X3020Y1086D01*
X3057Y1086D02*
X3078Y1086D01*
X3099Y1086D02*
X3120Y1086D01*
X3157Y1086D02*
X3178Y1086D01*
X3199Y1086D02*
X3220Y1086D01*
X3257Y1086D02*
X3278Y1086D01*
X3299Y1086D02*
X3320Y1086D01*
X3357Y1086D02*
X3378Y1086D01*
X3399Y1086D02*
X3420Y1086D01*
X3457Y1086D02*
X3478Y1086D01*
X3499Y1086D02*
X3520Y1086D01*
X3557Y1086D02*
X3578Y1086D01*
X3599Y1086D02*
X3620Y1086D01*
X2656Y1085D02*
X2677Y1085D01*
X2700Y1085D02*
X2721Y1085D01*
X2756Y1085D02*
X2777Y1085D01*
X2800Y1085D02*
X2821Y1085D01*
X2856Y1085D02*
X2877Y1085D01*
X2900Y1085D02*
X2921Y1085D01*
X2956Y1085D02*
X2977Y1085D01*
X3000Y1085D02*
X3021Y1085D01*
X3056Y1085D02*
X3077Y1085D01*
X3100Y1085D02*
X3121Y1085D01*
X3156Y1085D02*
X3177Y1085D01*
X3200Y1085D02*
X3221Y1085D01*
X3256Y1085D02*
X3277Y1085D01*
X3300Y1085D02*
X3321Y1085D01*
X3356Y1085D02*
X3377Y1085D01*
X3400Y1085D02*
X3421Y1085D01*
X3456Y1085D02*
X3477Y1085D01*
X3500Y1085D02*
X3521Y1085D01*
X3556Y1085D02*
X3577Y1085D01*
X3600Y1085D02*
X3621Y1085D01*
X2656Y1084D02*
X2676Y1084D01*
X2701Y1084D02*
X2721Y1084D01*
X2756Y1084D02*
X2776Y1084D01*
X2801Y1084D02*
X2821Y1084D01*
X2856Y1084D02*
X2876Y1084D01*
X2901Y1084D02*
X2921Y1084D01*
X2956Y1084D02*
X2976Y1084D01*
X3001Y1084D02*
X3021Y1084D01*
X3056Y1084D02*
X3076Y1084D01*
X3101Y1084D02*
X3121Y1084D01*
X3156Y1084D02*
X3176Y1084D01*
X3201Y1084D02*
X3221Y1084D01*
X3256Y1084D02*
X3276Y1084D01*
X3301Y1084D02*
X3321Y1084D01*
X3356Y1084D02*
X3376Y1084D01*
X3401Y1084D02*
X3421Y1084D01*
X3456Y1084D02*
X3476Y1084D01*
X3501Y1084D02*
X3521Y1084D01*
X3556Y1084D02*
X3576Y1084D01*
X3601Y1084D02*
X3621Y1084D01*
X2656Y1083D02*
X2675Y1083D01*
X2702Y1083D02*
X2722Y1083D01*
X2756Y1083D02*
X2775Y1083D01*
X2802Y1083D02*
X2822Y1083D01*
X2855Y1083D02*
X2875Y1083D01*
X2902Y1083D02*
X2922Y1083D01*
X2955Y1083D02*
X2975Y1083D01*
X3002Y1083D02*
X3022Y1083D01*
X3055Y1083D02*
X3075Y1083D01*
X3102Y1083D02*
X3122Y1083D01*
X3155Y1083D02*
X3175Y1083D01*
X3202Y1083D02*
X3222Y1083D01*
X3255Y1083D02*
X3275Y1083D01*
X3302Y1083D02*
X3322Y1083D01*
X3355Y1083D02*
X3375Y1083D01*
X3402Y1083D02*
X3422Y1083D01*
X3455Y1083D02*
X3475Y1083D01*
X3502Y1083D02*
X3522Y1083D01*
X3555Y1083D02*
X3575Y1083D01*
X3602Y1083D02*
X3622Y1083D01*
X2655Y1082D02*
X2675Y1082D01*
X2702Y1082D02*
X2722Y1082D01*
X2755Y1082D02*
X2775Y1082D01*
X2802Y1082D02*
X2822Y1082D01*
X2855Y1082D02*
X2875Y1082D01*
X2902Y1082D02*
X2922Y1082D01*
X2955Y1082D02*
X2975Y1082D01*
X3002Y1082D02*
X3022Y1082D01*
X3055Y1082D02*
X3075Y1082D01*
X3102Y1082D02*
X3122Y1082D01*
X3155Y1082D02*
X3175Y1082D01*
X3202Y1082D02*
X3222Y1082D01*
X3255Y1082D02*
X3275Y1082D01*
X3302Y1082D02*
X3322Y1082D01*
X3355Y1082D02*
X3375Y1082D01*
X3402Y1082D02*
X3422Y1082D01*
X3455Y1082D02*
X3475Y1082D01*
X3502Y1082D02*
X3522Y1082D01*
X3555Y1082D02*
X3575Y1082D01*
X3602Y1082D02*
X3622Y1082D01*
X2655Y1081D02*
X2674Y1081D01*
X2703Y1081D02*
X2722Y1081D01*
X2755Y1081D02*
X2774Y1081D01*
X2803Y1081D02*
X2822Y1081D01*
X2855Y1081D02*
X2874Y1081D01*
X2903Y1081D02*
X2922Y1081D01*
X2955Y1081D02*
X2974Y1081D01*
X3003Y1081D02*
X3022Y1081D01*
X3055Y1081D02*
X3074Y1081D01*
X3103Y1081D02*
X3122Y1081D01*
X3155Y1081D02*
X3174Y1081D01*
X3203Y1081D02*
X3222Y1081D01*
X3255Y1081D02*
X3274Y1081D01*
X3303Y1081D02*
X3322Y1081D01*
X3355Y1081D02*
X3374Y1081D01*
X3403Y1081D02*
X3422Y1081D01*
X3455Y1081D02*
X3474Y1081D01*
X3503Y1081D02*
X3522Y1081D01*
X3555Y1081D02*
X3574Y1081D01*
X3603Y1081D02*
X3622Y1081D01*
X2655Y1080D02*
X2674Y1080D01*
X2703Y1080D02*
X2722Y1080D01*
X2755Y1080D02*
X2774Y1080D01*
X2803Y1080D02*
X2822Y1080D01*
X2855Y1080D02*
X2874Y1080D01*
X2903Y1080D02*
X2922Y1080D01*
X2955Y1080D02*
X2974Y1080D01*
X3003Y1080D02*
X3022Y1080D01*
X3055Y1080D02*
X3074Y1080D01*
X3103Y1080D02*
X3122Y1080D01*
X3155Y1080D02*
X3174Y1080D01*
X3203Y1080D02*
X3222Y1080D01*
X3255Y1080D02*
X3274Y1080D01*
X3303Y1080D02*
X3322Y1080D01*
X3355Y1080D02*
X3374Y1080D01*
X3403Y1080D02*
X3422Y1080D01*
X3455Y1080D02*
X3474Y1080D01*
X3503Y1080D02*
X3522Y1080D01*
X3555Y1080D02*
X3574Y1080D01*
X3603Y1080D02*
X3622Y1080D01*
X2655Y1079D02*
X2674Y1079D01*
X2703Y1079D02*
X2723Y1079D01*
X2755Y1079D02*
X2774Y1079D01*
X2803Y1079D02*
X2823Y1079D01*
X2855Y1079D02*
X2874Y1079D01*
X2903Y1079D02*
X2923Y1079D01*
X2955Y1079D02*
X2974Y1079D01*
X3003Y1079D02*
X3023Y1079D01*
X3055Y1079D02*
X3074Y1079D01*
X3103Y1079D02*
X3123Y1079D01*
X3154Y1079D02*
X3174Y1079D01*
X3203Y1079D02*
X3223Y1079D01*
X3254Y1079D02*
X3274Y1079D01*
X3303Y1079D02*
X3322Y1079D01*
X3354Y1079D02*
X3374Y1079D01*
X3403Y1079D02*
X3422Y1079D01*
X3454Y1079D02*
X3474Y1079D01*
X3503Y1079D02*
X3522Y1079D01*
X3554Y1079D02*
X3574Y1079D01*
X3603Y1079D02*
X3622Y1079D01*
X2654Y1078D02*
X2673Y1078D01*
X2704Y1078D02*
X2723Y1078D01*
X2754Y1078D02*
X2773Y1078D01*
X2804Y1078D02*
X2823Y1078D01*
X2854Y1078D02*
X2873Y1078D01*
X2904Y1078D02*
X2923Y1078D01*
X2954Y1078D02*
X2973Y1078D01*
X3004Y1078D02*
X3023Y1078D01*
X3054Y1078D02*
X3073Y1078D01*
X3104Y1078D02*
X3123Y1078D01*
X3154Y1078D02*
X3173Y1078D01*
X3204Y1078D02*
X3223Y1078D01*
X3254Y1078D02*
X3273Y1078D01*
X3304Y1078D02*
X3323Y1078D01*
X3354Y1078D02*
X3373Y1078D01*
X3404Y1078D02*
X3423Y1078D01*
X3454Y1078D02*
X3473Y1078D01*
X3504Y1078D02*
X3523Y1078D01*
X3554Y1078D02*
X3573Y1078D01*
X3604Y1078D02*
X3623Y1078D01*
X2654Y1077D02*
X2673Y1077D01*
X2704Y1077D02*
X2723Y1077D01*
X2754Y1077D02*
X2773Y1077D01*
X2804Y1077D02*
X2823Y1077D01*
X2854Y1077D02*
X2873Y1077D01*
X2904Y1077D02*
X2923Y1077D01*
X2954Y1077D02*
X2973Y1077D01*
X3004Y1077D02*
X3023Y1077D01*
X3054Y1077D02*
X3073Y1077D01*
X3104Y1077D02*
X3123Y1077D01*
X3154Y1077D02*
X3173Y1077D01*
X3204Y1077D02*
X3223Y1077D01*
X3254Y1077D02*
X3273Y1077D01*
X3304Y1077D02*
X3323Y1077D01*
X3354Y1077D02*
X3373Y1077D01*
X3404Y1077D02*
X3423Y1077D01*
X3454Y1077D02*
X3473Y1077D01*
X3504Y1077D02*
X3523Y1077D01*
X3554Y1077D02*
X3573Y1077D01*
X3604Y1077D02*
X3623Y1077D01*
X2654Y1076D02*
X2673Y1076D01*
X2704Y1076D02*
X2723Y1076D01*
X2754Y1076D02*
X2773Y1076D01*
X2804Y1076D02*
X2823Y1076D01*
X2854Y1076D02*
X2873Y1076D01*
X2904Y1076D02*
X2923Y1076D01*
X2954Y1076D02*
X2973Y1076D01*
X3004Y1076D02*
X3023Y1076D01*
X3054Y1076D02*
X3073Y1076D01*
X3104Y1076D02*
X3123Y1076D01*
X3154Y1076D02*
X3173Y1076D01*
X3204Y1076D02*
X3223Y1076D01*
X3254Y1076D02*
X3273Y1076D01*
X3304Y1076D02*
X3323Y1076D01*
X3354Y1076D02*
X3373Y1076D01*
X3404Y1076D02*
X3423Y1076D01*
X3454Y1076D02*
X3473Y1076D01*
X3504Y1076D02*
X3523Y1076D01*
X3554Y1076D02*
X3573Y1076D01*
X3604Y1076D02*
X3623Y1076D01*
X2654Y1075D02*
X2673Y1075D01*
X2704Y1075D02*
X2723Y1075D01*
X2754Y1075D02*
X2773Y1075D01*
X2804Y1075D02*
X2823Y1075D01*
X2854Y1075D02*
X2873Y1075D01*
X2904Y1075D02*
X2923Y1075D01*
X2954Y1075D02*
X2973Y1075D01*
X3004Y1075D02*
X3023Y1075D01*
X3054Y1075D02*
X3073Y1075D01*
X3104Y1075D02*
X3123Y1075D01*
X3154Y1075D02*
X3173Y1075D01*
X3204Y1075D02*
X3223Y1075D01*
X3254Y1075D02*
X3273Y1075D01*
X3304Y1075D02*
X3323Y1075D01*
X3354Y1075D02*
X3373Y1075D01*
X3404Y1075D02*
X3423Y1075D01*
X3454Y1075D02*
X3473Y1075D01*
X3504Y1075D02*
X3523Y1075D01*
X3554Y1075D02*
X3573Y1075D01*
X3604Y1075D02*
X3623Y1075D01*
X2654Y1074D02*
X2673Y1074D01*
X2704Y1074D02*
X2723Y1074D01*
X2754Y1074D02*
X2773Y1074D01*
X2804Y1074D02*
X2823Y1074D01*
X2854Y1074D02*
X2873Y1074D01*
X2904Y1074D02*
X2923Y1074D01*
X2954Y1074D02*
X2973Y1074D01*
X3004Y1074D02*
X3023Y1074D01*
X3054Y1074D02*
X3073Y1074D01*
X3104Y1074D02*
X3123Y1074D01*
X3154Y1074D02*
X3173Y1074D01*
X3204Y1074D02*
X3223Y1074D01*
X3254Y1074D02*
X3273Y1074D01*
X3304Y1074D02*
X3323Y1074D01*
X3354Y1074D02*
X3373Y1074D01*
X3404Y1074D02*
X3423Y1074D01*
X3454Y1074D02*
X3473Y1074D01*
X3504Y1074D02*
X3523Y1074D01*
X3554Y1074D02*
X3573Y1074D01*
X3604Y1074D02*
X3623Y1074D01*
X2654Y1073D02*
X2673Y1073D01*
X2704Y1073D02*
X2723Y1073D01*
X2754Y1073D02*
X2773Y1073D01*
X2804Y1073D02*
X2823Y1073D01*
X2854Y1073D02*
X2873Y1073D01*
X2904Y1073D02*
X2923Y1073D01*
X2954Y1073D02*
X2973Y1073D01*
X3004Y1073D02*
X3023Y1073D01*
X3054Y1073D02*
X3073Y1073D01*
X3104Y1073D02*
X3123Y1073D01*
X3154Y1073D02*
X3173Y1073D01*
X3204Y1073D02*
X3223Y1073D01*
X3254Y1073D02*
X3273Y1073D01*
X3304Y1073D02*
X3323Y1073D01*
X3354Y1073D02*
X3373Y1073D01*
X3404Y1073D02*
X3423Y1073D01*
X3454Y1073D02*
X3473Y1073D01*
X3504Y1073D02*
X3523Y1073D01*
X3554Y1073D02*
X3573Y1073D01*
X3604Y1073D02*
X3623Y1073D01*
X2654Y1072D02*
X2673Y1072D01*
X2704Y1072D02*
X2723Y1072D01*
X2754Y1072D02*
X2773Y1072D01*
X2804Y1072D02*
X2823Y1072D01*
X2854Y1072D02*
X2873Y1072D01*
X2904Y1072D02*
X2923Y1072D01*
X2954Y1072D02*
X2973Y1072D01*
X3004Y1072D02*
X3023Y1072D01*
X3054Y1072D02*
X3073Y1072D01*
X3104Y1072D02*
X3123Y1072D01*
X3154Y1072D02*
X3173Y1072D01*
X3204Y1072D02*
X3223Y1072D01*
X3254Y1072D02*
X3273Y1072D01*
X3304Y1072D02*
X3323Y1072D01*
X3354Y1072D02*
X3373Y1072D01*
X3404Y1072D02*
X3423Y1072D01*
X3454Y1072D02*
X3473Y1072D01*
X3504Y1072D02*
X3523Y1072D01*
X3554Y1072D02*
X3573Y1072D01*
X3604Y1072D02*
X3623Y1072D01*
X2654Y1071D02*
X2673Y1071D01*
X2704Y1071D02*
X2723Y1071D01*
X2754Y1071D02*
X2773Y1071D01*
X2804Y1071D02*
X2823Y1071D01*
X2854Y1071D02*
X2873Y1071D01*
X2904Y1071D02*
X2923Y1071D01*
X2954Y1071D02*
X2973Y1071D01*
X3004Y1071D02*
X3023Y1071D01*
X3054Y1071D02*
X3073Y1071D01*
X3104Y1071D02*
X3123Y1071D01*
X3154Y1071D02*
X3173Y1071D01*
X3204Y1071D02*
X3223Y1071D01*
X3254Y1071D02*
X3273Y1071D01*
X3304Y1071D02*
X3323Y1071D01*
X3354Y1071D02*
X3373Y1071D01*
X3404Y1071D02*
X3423Y1071D01*
X3454Y1071D02*
X3473Y1071D01*
X3504Y1071D02*
X3523Y1071D01*
X3554Y1071D02*
X3573Y1071D01*
X3604Y1071D02*
X3623Y1071D01*
X2654Y1070D02*
X2673Y1070D01*
X2704Y1070D02*
X2723Y1070D01*
X2754Y1070D02*
X2773Y1070D01*
X2804Y1070D02*
X2823Y1070D01*
X2854Y1070D02*
X2873Y1070D01*
X2904Y1070D02*
X2923Y1070D01*
X2954Y1070D02*
X2973Y1070D01*
X3004Y1070D02*
X3023Y1070D01*
X3054Y1070D02*
X3073Y1070D01*
X3104Y1070D02*
X3123Y1070D01*
X3154Y1070D02*
X3173Y1070D01*
X3204Y1070D02*
X3223Y1070D01*
X3254Y1070D02*
X3273Y1070D01*
X3304Y1070D02*
X3323Y1070D01*
X3354Y1070D02*
X3373Y1070D01*
X3404Y1070D02*
X3423Y1070D01*
X3454Y1070D02*
X3473Y1070D01*
X3504Y1070D02*
X3523Y1070D01*
X3554Y1070D02*
X3573Y1070D01*
X3604Y1070D02*
X3623Y1070D01*
X2655Y1069D02*
X2674Y1069D01*
X2703Y1069D02*
X2723Y1069D01*
X2755Y1069D02*
X2774Y1069D01*
X2803Y1069D02*
X2823Y1069D01*
X2855Y1069D02*
X2874Y1069D01*
X2903Y1069D02*
X2923Y1069D01*
X2955Y1069D02*
X2974Y1069D01*
X3003Y1069D02*
X3023Y1069D01*
X3054Y1069D02*
X3074Y1069D01*
X3103Y1069D02*
X3123Y1069D01*
X3154Y1069D02*
X3174Y1069D01*
X3203Y1069D02*
X3223Y1069D01*
X3254Y1069D02*
X3274Y1069D01*
X3303Y1069D02*
X3323Y1069D01*
X3354Y1069D02*
X3374Y1069D01*
X3403Y1069D02*
X3423Y1069D01*
X3454Y1069D02*
X3474Y1069D01*
X3503Y1069D02*
X3522Y1069D01*
X3554Y1069D02*
X3574Y1069D01*
X3603Y1069D02*
X3622Y1069D01*
X2655Y1068D02*
X2674Y1068D01*
X2703Y1068D02*
X2722Y1068D01*
X2755Y1068D02*
X2774Y1068D01*
X2803Y1068D02*
X2822Y1068D01*
X2855Y1068D02*
X2874Y1068D01*
X2903Y1068D02*
X2922Y1068D01*
X2955Y1068D02*
X2974Y1068D01*
X3003Y1068D02*
X3022Y1068D01*
X3055Y1068D02*
X3074Y1068D01*
X3103Y1068D02*
X3122Y1068D01*
X3155Y1068D02*
X3174Y1068D01*
X3203Y1068D02*
X3222Y1068D01*
X3255Y1068D02*
X3274Y1068D01*
X3303Y1068D02*
X3322Y1068D01*
X3355Y1068D02*
X3374Y1068D01*
X3403Y1068D02*
X3422Y1068D01*
X3455Y1068D02*
X3474Y1068D01*
X3503Y1068D02*
X3522Y1068D01*
X3555Y1068D02*
X3574Y1068D01*
X3603Y1068D02*
X3622Y1068D01*
X2655Y1067D02*
X2674Y1067D01*
X2703Y1067D02*
X2722Y1067D01*
X2755Y1067D02*
X2774Y1067D01*
X2803Y1067D02*
X2822Y1067D01*
X2855Y1067D02*
X2874Y1067D01*
X2903Y1067D02*
X2922Y1067D01*
X2955Y1067D02*
X2974Y1067D01*
X3003Y1067D02*
X3022Y1067D01*
X3055Y1067D02*
X3074Y1067D01*
X3103Y1067D02*
X3122Y1067D01*
X3155Y1067D02*
X3174Y1067D01*
X3203Y1067D02*
X3222Y1067D01*
X3255Y1067D02*
X3274Y1067D01*
X3303Y1067D02*
X3322Y1067D01*
X3355Y1067D02*
X3374Y1067D01*
X3403Y1067D02*
X3422Y1067D01*
X3455Y1067D02*
X3474Y1067D01*
X3503Y1067D02*
X3522Y1067D01*
X3555Y1067D02*
X3574Y1067D01*
X3603Y1067D02*
X3622Y1067D01*
X2655Y1066D02*
X2675Y1066D01*
X2702Y1066D02*
X2722Y1066D01*
X2755Y1066D02*
X2775Y1066D01*
X2802Y1066D02*
X2822Y1066D01*
X2855Y1066D02*
X2875Y1066D01*
X2902Y1066D02*
X2922Y1066D01*
X2955Y1066D02*
X2975Y1066D01*
X3002Y1066D02*
X3022Y1066D01*
X3055Y1066D02*
X3075Y1066D01*
X3102Y1066D02*
X3122Y1066D01*
X3155Y1066D02*
X3175Y1066D01*
X3202Y1066D02*
X3222Y1066D01*
X3255Y1066D02*
X3275Y1066D01*
X3302Y1066D02*
X3322Y1066D01*
X3355Y1066D02*
X3375Y1066D01*
X3402Y1066D02*
X3422Y1066D01*
X3455Y1066D02*
X3475Y1066D01*
X3502Y1066D02*
X3522Y1066D01*
X3555Y1066D02*
X3575Y1066D01*
X3602Y1066D02*
X3622Y1066D01*
X2655Y1065D02*
X2675Y1065D01*
X2702Y1065D02*
X2722Y1065D01*
X2755Y1065D02*
X2775Y1065D01*
X2802Y1065D02*
X2822Y1065D01*
X2855Y1065D02*
X2875Y1065D01*
X2902Y1065D02*
X2922Y1065D01*
X2955Y1065D02*
X2975Y1065D01*
X3002Y1065D02*
X3022Y1065D01*
X3055Y1065D02*
X3075Y1065D01*
X3102Y1065D02*
X3122Y1065D01*
X3155Y1065D02*
X3175Y1065D01*
X3202Y1065D02*
X3222Y1065D01*
X3255Y1065D02*
X3275Y1065D01*
X3302Y1065D02*
X3322Y1065D01*
X3355Y1065D02*
X3375Y1065D01*
X3402Y1065D02*
X3422Y1065D01*
X3455Y1065D02*
X3475Y1065D01*
X3502Y1065D02*
X3522Y1065D01*
X3555Y1065D02*
X3575Y1065D01*
X3602Y1065D02*
X3622Y1065D01*
X2656Y1064D02*
X2676Y1064D01*
X2701Y1064D02*
X2721Y1064D01*
X2756Y1064D02*
X2776Y1064D01*
X2801Y1064D02*
X2821Y1064D01*
X2856Y1064D02*
X2876Y1064D01*
X2901Y1064D02*
X2921Y1064D01*
X2956Y1064D02*
X2976Y1064D01*
X3001Y1064D02*
X3021Y1064D01*
X3056Y1064D02*
X3076Y1064D01*
X3101Y1064D02*
X3121Y1064D01*
X3156Y1064D02*
X3176Y1064D01*
X3201Y1064D02*
X3221Y1064D01*
X3256Y1064D02*
X3276Y1064D01*
X3301Y1064D02*
X3321Y1064D01*
X3356Y1064D02*
X3376Y1064D01*
X3401Y1064D02*
X3421Y1064D01*
X3456Y1064D02*
X3476Y1064D01*
X3501Y1064D02*
X3521Y1064D01*
X3556Y1064D02*
X3576Y1064D01*
X3601Y1064D02*
X3621Y1064D01*
X2656Y1063D02*
X2677Y1063D01*
X2700Y1063D02*
X2721Y1063D01*
X2756Y1063D02*
X2777Y1063D01*
X2800Y1063D02*
X2821Y1063D01*
X2856Y1063D02*
X2877Y1063D01*
X2900Y1063D02*
X2921Y1063D01*
X2956Y1063D02*
X2977Y1063D01*
X3000Y1063D02*
X3021Y1063D01*
X3056Y1063D02*
X3077Y1063D01*
X3100Y1063D02*
X3121Y1063D01*
X3156Y1063D02*
X3177Y1063D01*
X3200Y1063D02*
X3221Y1063D01*
X3256Y1063D02*
X3277Y1063D01*
X3300Y1063D02*
X3321Y1063D01*
X3356Y1063D02*
X3377Y1063D01*
X3400Y1063D02*
X3421Y1063D01*
X3456Y1063D02*
X3477Y1063D01*
X3500Y1063D02*
X3521Y1063D01*
X3556Y1063D02*
X3577Y1063D01*
X3600Y1063D02*
X3621Y1063D01*
X2657Y1062D02*
X2678Y1062D01*
X2699Y1062D02*
X2721Y1062D01*
X2757Y1062D02*
X2778Y1062D01*
X2799Y1062D02*
X2821Y1062D01*
X2857Y1062D02*
X2878Y1062D01*
X2899Y1062D02*
X2921Y1062D01*
X2957Y1062D02*
X2978Y1062D01*
X2999Y1062D02*
X3021Y1062D01*
X3057Y1062D02*
X3078Y1062D01*
X3099Y1062D02*
X3121Y1062D01*
X3157Y1062D02*
X3178Y1062D01*
X3199Y1062D02*
X3220Y1062D01*
X3256Y1062D02*
X3278Y1062D01*
X3299Y1062D02*
X3320Y1062D01*
X3356Y1062D02*
X3378Y1062D01*
X3399Y1062D02*
X3420Y1062D01*
X3456Y1062D02*
X3478Y1062D01*
X3499Y1062D02*
X3520Y1062D01*
X3556Y1062D02*
X3578Y1062D01*
X3599Y1062D02*
X3620Y1062D01*
X2657Y1061D02*
X2679Y1061D01*
X2698Y1061D02*
X2720Y1061D01*
X2757Y1061D02*
X2779Y1061D01*
X2798Y1061D02*
X2820Y1061D01*
X2857Y1061D02*
X2879Y1061D01*
X2898Y1061D02*
X2920Y1061D01*
X2957Y1061D02*
X2979Y1061D01*
X2998Y1061D02*
X3020Y1061D01*
X3057Y1061D02*
X3079Y1061D01*
X3098Y1061D02*
X3120Y1061D01*
X3157Y1061D02*
X3179Y1061D01*
X3198Y1061D02*
X3220Y1061D01*
X3257Y1061D02*
X3279Y1061D01*
X3298Y1061D02*
X3320Y1061D01*
X3357Y1061D02*
X3379Y1061D01*
X3398Y1061D02*
X3420Y1061D01*
X3457Y1061D02*
X3479Y1061D01*
X3498Y1061D02*
X3520Y1061D01*
X3557Y1061D02*
X3579Y1061D01*
X3598Y1061D02*
X3620Y1061D01*
X2657Y1060D02*
X2682Y1060D01*
X2696Y1060D02*
X2720Y1060D01*
X2757Y1060D02*
X2782Y1060D01*
X2796Y1060D02*
X2820Y1060D01*
X2857Y1060D02*
X2882Y1060D01*
X2896Y1060D02*
X2920Y1060D01*
X2957Y1060D02*
X2982Y1060D01*
X2996Y1060D02*
X3020Y1060D01*
X3057Y1060D02*
X3082Y1060D01*
X3096Y1060D02*
X3120Y1060D01*
X3157Y1060D02*
X3181Y1060D01*
X3196Y1060D02*
X3220Y1060D01*
X3257Y1060D02*
X3281Y1060D01*
X3295Y1060D02*
X3320Y1060D01*
X3357Y1060D02*
X3381Y1060D01*
X3395Y1060D02*
X3420Y1060D01*
X3457Y1060D02*
X3481Y1060D01*
X3495Y1060D02*
X3520Y1060D01*
X3557Y1060D02*
X3581Y1060D01*
X3595Y1060D02*
X3620Y1060D01*
X2658Y1059D02*
X2687Y1059D01*
X2690Y1059D02*
X2719Y1059D01*
X2758Y1059D02*
X2787Y1059D01*
X2790Y1059D02*
X2819Y1059D01*
X2858Y1059D02*
X2887Y1059D01*
X2890Y1059D02*
X2919Y1059D01*
X2958Y1059D02*
X2987Y1059D01*
X2990Y1059D02*
X3019Y1059D01*
X3058Y1059D02*
X3087Y1059D01*
X3090Y1059D02*
X3119Y1059D01*
X3158Y1059D02*
X3187Y1059D01*
X3190Y1059D02*
X3219Y1059D01*
X3258Y1059D02*
X3287Y1059D01*
X3290Y1059D02*
X3319Y1059D01*
X3358Y1059D02*
X3387Y1059D01*
X3390Y1059D02*
X3419Y1059D01*
X3458Y1059D02*
X3487Y1059D01*
X3490Y1059D02*
X3519Y1059D01*
X3558Y1059D02*
X3587Y1059D01*
X3590Y1059D02*
X3619Y1059D01*
X2659Y1058D02*
X2719Y1058D01*
X2759Y1058D02*
X2819Y1058D01*
X2858Y1058D02*
X2919Y1058D01*
X2958Y1058D02*
X3019Y1058D01*
X3058Y1058D02*
X3119Y1058D01*
X3158Y1058D02*
X3219Y1058D01*
X3258Y1058D02*
X3319Y1058D01*
X3358Y1058D02*
X3419Y1058D01*
X3458Y1058D02*
X3519Y1058D01*
X3558Y1058D02*
X3619Y1058D01*
X2659Y1057D02*
X2718Y1057D01*
X2759Y1057D02*
X2818Y1057D01*
X2859Y1057D02*
X2918Y1057D01*
X2959Y1057D02*
X3018Y1057D01*
X3059Y1057D02*
X3118Y1057D01*
X3159Y1057D02*
X3218Y1057D01*
X3259Y1057D02*
X3318Y1057D01*
X3359Y1057D02*
X3418Y1057D01*
X3459Y1057D02*
X3518Y1057D01*
X3559Y1057D02*
X3618Y1057D01*
X2660Y1056D02*
X2717Y1056D01*
X2760Y1056D02*
X2817Y1056D01*
X2860Y1056D02*
X2917Y1056D01*
X2960Y1056D02*
X3017Y1056D01*
X3060Y1056D02*
X3117Y1056D01*
X3160Y1056D02*
X3217Y1056D01*
X3260Y1056D02*
X3317Y1056D01*
X3360Y1056D02*
X3417Y1056D01*
X3460Y1056D02*
X3517Y1056D01*
X3560Y1056D02*
X3617Y1056D01*
X2660Y1055D02*
X2717Y1055D01*
X2760Y1055D02*
X2817Y1055D01*
X2860Y1055D02*
X2917Y1055D01*
X2960Y1055D02*
X3017Y1055D01*
X3060Y1055D02*
X3117Y1055D01*
X3160Y1055D02*
X3217Y1055D01*
X3260Y1055D02*
X3317Y1055D01*
X3360Y1055D02*
X3417Y1055D01*
X3460Y1055D02*
X3517Y1055D01*
X3560Y1055D02*
X3617Y1055D01*
X2661Y1054D02*
X2716Y1054D01*
X2761Y1054D02*
X2816Y1054D01*
X2861Y1054D02*
X2916Y1054D01*
X2961Y1054D02*
X3016Y1054D01*
X3061Y1054D02*
X3116Y1054D01*
X3161Y1054D02*
X3216Y1054D01*
X3261Y1054D02*
X3316Y1054D01*
X3361Y1054D02*
X3416Y1054D01*
X3461Y1054D02*
X3516Y1054D01*
X3561Y1054D02*
X3616Y1054D01*
X2662Y1053D02*
X2715Y1053D01*
X2762Y1053D02*
X2815Y1053D01*
X2862Y1053D02*
X2915Y1053D01*
X2962Y1053D02*
X3015Y1053D01*
X3062Y1053D02*
X3115Y1053D01*
X3162Y1053D02*
X3215Y1053D01*
X3262Y1053D02*
X3315Y1053D01*
X3362Y1053D02*
X3415Y1053D01*
X3462Y1053D02*
X3515Y1053D01*
X3562Y1053D02*
X3615Y1053D01*
X2663Y1052D02*
X2714Y1052D01*
X2763Y1052D02*
X2814Y1052D01*
X2863Y1052D02*
X2914Y1052D01*
X2963Y1052D02*
X3014Y1052D01*
X3063Y1052D02*
X3114Y1052D01*
X3163Y1052D02*
X3214Y1052D01*
X3263Y1052D02*
X3314Y1052D01*
X3363Y1052D02*
X3414Y1052D01*
X3463Y1052D02*
X3514Y1052D01*
X3563Y1052D02*
X3614Y1052D01*
X2664Y1051D02*
X2713Y1051D01*
X2764Y1051D02*
X2813Y1051D01*
X2864Y1051D02*
X2913Y1051D01*
X2964Y1051D02*
X3013Y1051D01*
X3064Y1051D02*
X3113Y1051D01*
X3164Y1051D02*
X3213Y1051D01*
X3264Y1051D02*
X3313Y1051D01*
X3364Y1051D02*
X3413Y1051D01*
X3464Y1051D02*
X3513Y1051D01*
X3564Y1051D02*
X3613Y1051D01*
X2665Y1050D02*
X2713Y1050D01*
X2765Y1050D02*
X2813Y1050D01*
X2865Y1050D02*
X2913Y1050D01*
X2965Y1050D02*
X3013Y1050D01*
X3065Y1050D02*
X3113Y1050D01*
X3165Y1050D02*
X3212Y1050D01*
X3265Y1050D02*
X3312Y1050D01*
X3364Y1050D02*
X3412Y1050D01*
X3464Y1050D02*
X3512Y1050D01*
X3564Y1050D02*
X3612Y1050D01*
X2666Y1049D02*
X2712Y1049D01*
X2766Y1049D02*
X2811Y1049D01*
X2866Y1049D02*
X2911Y1049D01*
X2966Y1049D02*
X3011Y1049D01*
X3066Y1049D02*
X3111Y1049D01*
X3166Y1049D02*
X3211Y1049D01*
X3266Y1049D02*
X3311Y1049D01*
X3366Y1049D02*
X3411Y1049D01*
X3466Y1049D02*
X3511Y1049D01*
X3566Y1049D02*
X3611Y1049D01*
X2667Y1048D02*
X2710Y1048D01*
X2767Y1048D02*
X2810Y1048D01*
X2867Y1048D02*
X2910Y1048D01*
X2967Y1048D02*
X3010Y1048D01*
X3067Y1048D02*
X3110Y1048D01*
X3167Y1048D02*
X3210Y1048D01*
X3267Y1048D02*
X3310Y1048D01*
X3367Y1048D02*
X3410Y1048D01*
X3467Y1048D02*
X3510Y1048D01*
X3567Y1048D02*
X3610Y1048D01*
X2668Y1047D02*
X2709Y1047D01*
X2768Y1047D02*
X2809Y1047D01*
X2868Y1047D02*
X2909Y1047D01*
X2968Y1047D02*
X3009Y1047D01*
X3068Y1047D02*
X3109Y1047D01*
X3168Y1047D02*
X3209Y1047D01*
X3268Y1047D02*
X3309Y1047D01*
X3368Y1047D02*
X3409Y1047D01*
X3468Y1047D02*
X3509Y1047D01*
X3568Y1047D02*
X3609Y1047D01*
X2669Y1046D02*
X2708Y1046D01*
X2769Y1046D02*
X2808Y1046D01*
X2869Y1046D02*
X2908Y1046D01*
X2969Y1046D02*
X3008Y1046D01*
X3069Y1046D02*
X3108Y1046D01*
X3169Y1046D02*
X3208Y1046D01*
X3269Y1046D02*
X3308Y1046D01*
X3369Y1046D02*
X3408Y1046D01*
X3469Y1046D02*
X3508Y1046D01*
X3569Y1046D02*
X3608Y1046D01*
X2671Y1045D02*
X2707Y1045D01*
X2771Y1045D02*
X2807Y1045D01*
X2871Y1045D02*
X2907Y1045D01*
X2971Y1045D02*
X3007Y1045D01*
X3071Y1045D02*
X3107Y1045D01*
X3171Y1045D02*
X3207Y1045D01*
X3270Y1045D02*
X3306Y1045D01*
X3370Y1045D02*
X3406Y1045D01*
X3470Y1045D02*
X3506Y1045D01*
X3570Y1045D02*
X3606Y1045D01*
X2672Y1044D02*
X2705Y1044D01*
X2772Y1044D02*
X2805Y1044D01*
X2872Y1044D02*
X2905Y1044D01*
X2972Y1044D02*
X3005Y1044D01*
X3072Y1044D02*
X3105Y1044D01*
X3172Y1044D02*
X3205Y1044D01*
X3272Y1044D02*
X3305Y1044D01*
X3372Y1044D02*
X3405Y1044D01*
X3472Y1044D02*
X3505Y1044D01*
X3572Y1044D02*
X3605Y1044D01*
X2674Y1043D02*
X2703Y1043D01*
X2774Y1043D02*
X2803Y1043D01*
X2874Y1043D02*
X2903Y1043D01*
X2974Y1043D02*
X3003Y1043D01*
X3074Y1043D02*
X3103Y1043D01*
X3174Y1043D02*
X3203Y1043D01*
X3274Y1043D02*
X3303Y1043D01*
X3374Y1043D02*
X3403Y1043D01*
X3474Y1043D02*
X3503Y1043D01*
X3574Y1043D02*
X3603Y1043D01*
X2676Y1042D02*
X2701Y1042D01*
X2776Y1042D02*
X2801Y1042D01*
X2876Y1042D02*
X2901Y1042D01*
X2976Y1042D02*
X3001Y1042D01*
X3076Y1042D02*
X3101Y1042D01*
X3176Y1042D02*
X3201Y1042D01*
X3276Y1042D02*
X3301Y1042D01*
X3376Y1042D02*
X3401Y1042D01*
X3476Y1042D02*
X3501Y1042D01*
X3576Y1042D02*
X3601Y1042D01*
X2678Y1041D02*
X2699Y1041D01*
X2778Y1041D02*
X2799Y1041D01*
X2878Y1041D02*
X2899Y1041D01*
X2978Y1041D02*
X2999Y1041D01*
X3078Y1041D02*
X3099Y1041D01*
X3178Y1041D02*
X3199Y1041D01*
X3278Y1041D02*
X3299Y1041D01*
X3378Y1041D02*
X3399Y1041D01*
X3478Y1041D02*
X3499Y1041D01*
X3578Y1041D02*
X3599Y1041D01*
X2681Y1040D02*
X2696Y1040D01*
X2781Y1040D02*
X2796Y1040D01*
X2881Y1040D02*
X2896Y1040D01*
X2981Y1040D02*
X2996Y1040D01*
X3081Y1040D02*
X3096Y1040D01*
X3181Y1040D02*
X3196Y1040D01*
X3281Y1040D02*
X3296Y1040D01*
X3381Y1040D02*
X3396Y1040D01*
X3481Y1040D02*
X3496Y1040D01*
X3581Y1040D02*
X3596Y1040D01*
X2688Y1039D02*
X2689Y1039D01*
X2788Y1039D02*
X2789Y1039D01*
X2888Y1039D02*
X2889Y1039D01*
X2988Y1039D02*
X2989Y1039D01*
X3088Y1039D02*
X3089Y1039D01*
X3188Y1039D02*
X3189Y1039D01*
X3288Y1039D02*
X3289Y1039D01*
X3388Y1039D02*
X3389Y1039D01*
X3488Y1039D02*
X3489Y1039D01*
X3588Y1039D02*
X3589Y1039D01*
D02*
G04 End of Copper1*
M02*